<svg version="1.1" xmlns="http://www.w3.org/2000/svg" xmlns:xlink="http://www.w3.org/1999/xlink" width="877" height="2061"><defs/><g><g transform="translate(-38,2) scale(1,1)"><path fill="#C0C0C0" stroke="none" d="M 295 80.5 C 295 75.2532944 300.8202976 71 308 71 C 315.1797024 71 321 75.2532944 321 80.5 C 321 85.7467056 315.1797024 90 308 90 C 300.8202976 90 295 85.7467056 295 80.5 Z" opacity="0.2"/></g><g transform="translate(-38,2) scale(1,1)"><path fill="#000000" stroke="none" d="M 288 73.5 C 288 68.2532944 293.8202976 64 301 64 C 308.1797024 64 314 68.2532944 314 73.5 C 314 78.7467056 308.1797024 83 301 83 C 293.8202976 83 288 78.7467056 288 73.5 Z"/></g><g transform="translate(-38,2) scale(1,1)"><path fill="#C0C0C0" stroke="none" d="M 281 143 L 342.0078125 143 Q 352.0078125 143 352.0078125 153 L 352.0078125 173 Q 352.0078125 183 342.0078125 183 L 281 183 Q 271 183 271 173 L 271 153 Q 271 143 281 143 Z" opacity="0.2"/></g><g transform="translate(-38,2) scale(1,1)"><path fill="#ffffff" stroke="none" d="M 274 136 L 335.0078125 136 Q 345.0078125 136 345.0078125 146 L 345.0078125 166 Q 345.0078125 176 335.0078125 176 L 274 176 Q 264 176 264 166 L 264 146 Q 264 136 274 136 Z"/></g><g transform="translate(-38,2) scale(1,1)"><path fill="none" stroke="#000000" d="M 274 136 L 335.0078125 136 Q 345.0078125 136 345.0078125 146 L 345.0078125 166 Q 345.0078125 176 335.0078125 176 L 274 176 Q 264 176 264 166 L 264 146 Q 264 136 274 136 Z" stroke-miterlimit="10"/></g><g transform="translate(-38,2) scale(1,1)"><g><path fill="none" stroke="none"/><text fill="#000000" stroke="none" font-family="Arial" font-size="13px" font-style="normal" font-weight="bold" text-decoration="none" x="269.823486328125" y="155.5">启动AR app</text></g></g><g transform="translate(-38,2) scale(1,1)"><path fill="none" stroke="#000000" d="M 299 83 L 299 136" stroke-miterlimit="10"/></g><g transform="translate(-38,2) scale(1,1)"><path fill="none" stroke="#000000" d="M 294.790482243984 125.83732514237585 L 299 136 L 303.209517756016 125.83732514237585" stroke-miterlimit="10"/></g><g transform="translate(-38,2) scale(1,1)"><path fill="#C0C0C0" stroke="none" d="M 281 239 L 362.77734375 239 Q 372.77734375 239 372.77734375 249 L 372.77734375 269 Q 372.77734375 279 362.77734375 279 L 281 279 Q 271 279 271 269 L 271 249 Q 271 239 281 239 Z" opacity="0.2"/></g><g transform="translate(-38,2) scale(1,1)"><path fill="#003d5b" stroke="none" d="M 274 232 L 355.77734375 232 Q 365.77734375 232 365.77734375 242 L 365.77734375 262 Q 365.77734375 272 355.77734375 272 L 274 272 Q 264 272 264 262 L 264 242 Q 264 232 274 232 Z"/></g><g transform="translate(-38,2) scale(1,1)"><path fill="none" stroke="#000000" d="M 274 232 L 355.77734375 232 Q 365.77734375 232 365.77734375 242 L 365.77734375 262 Q 365.77734375 272 355.77734375 272 L 274 272 Q 264 272 264 262 L 264 242 Q 264 232 274 232 Z" stroke-miterlimit="10"/></g><g transform="translate(-38,2) scale(1,1)"><g><path fill="none" stroke="none"/><text fill="#eaeaea" stroke="none" font-family="Arial" font-size="13px" font-style="normal" font-weight="bold" text-decoration="none" x="269.388671875" y="251.5">摄像头识别图像</text></g></g><g transform="translate(-38,2) scale(1,1)"><path fill="#C0C0C0" stroke="none" d="M 481 239 L 602.5390625 239 Q 612.5390625 239 612.5390625 249 L 612.5390625 269 Q 612.5390625 279 602.5390625 279 L 481 279 Q 471 279 471 269 L 471 249 Q 471 239 481 239 Z" opacity="0.2"/></g><g transform="translate(-38,2) scale(1,1)"><path fill="#ffffff" stroke="none" d="M 474 232 L 595.5390625 232 Q 605.5390625 232 605.5390625 242 L 605.5390625 262 Q 605.5390625 272 595.5390625 272 L 474 272 Q 464 272 464 262 L 464 242 Q 464 232 474 232 Z"/></g><g transform="translate(-38,2) scale(1,1)"><path fill="none" stroke="#000000" d="M 474 232 L 595.5390625 232 Q 605.5390625 232 605.5390625 242 L 605.5390625 262 Q 605.5390625 272 595.5390625 272 L 474 272 Q 464 272 464 262 L 464 242 Q 464 232 474 232 Z" stroke-miterlimit="10"/></g><g transform="translate(-38,2) scale(1,1)"><g><path fill="none" stroke="none"/><text fill="#000000" stroke="none" font-family="Arial" font-size="13px" font-style="normal" font-weight="bold" text-decoration="none" x="469.76953125" y="251.5">图片出现传送门和动画</text></g></g><g transform="translate(-38,2) scale(1,1)"><path fill="#C0C0C0" stroke="none" d="M 303 345 L 317.5 327 L 331 345 L 317.5 362 L 303 345" opacity="0.2"/></g><g transform="translate(-38,2) scale(1,1)"><path fill="#ffffff" stroke="none" d="M 296 337.5 L 310 320 L 324 337.5 L 310 355 L 296 337.5"/></g><g transform="translate(-38,2) scale(1,1)"><path fill="none" stroke="#000000" d="M 296 337.5 L 310 320 L 324 337.5 L 310 355 L 296 337.5 L 296 337.5" stroke-miterlimit="10"/></g><g transform="translate(-38,2) scale(1,1)"><path fill="none" stroke="#000000" d="M 311 272 L 311 320" stroke-miterlimit="10"/></g><g transform="translate(-38,2) scale(1,1)"><path fill="none" stroke="#000000" d="M 306.790482243984 309.83732514237585 L 311 320 L 315.209517756016 309.83732514237585" stroke-miterlimit="10"/></g><g transform="translate(-38,2) scale(1,1)"><path fill="none" stroke="#000000" d="M 324 332 L 400 332 M 400 332 A 8 8 0 0 0 408 324 L 408 272 M 408 272 A 8 8 0 0 1 416 264 L 464 264" stroke-miterlimit="10"/></g><g transform="translate(-38,2) scale(1,1)"><path fill="none" stroke="#000000" d="M 453.83732514237585 268.209517756016 L 464 264 L 453.83732514237585 259.790482243984" stroke-miterlimit="10"/></g><g transform="translate(-38,2) scale(1,1)"><g><path fill="none" stroke="none"/><text fill="#000000" stroke="none" font-family="Arial" font-size="13px" font-style="normal" font-weight="normal" text-decoration="none" x="386.5" y="303.5">是</text></g></g><g transform="translate(-38,2) scale(1,1)"><path fill="none" stroke="#000000" d="M 296 344 L 208 344 M 208 344 A 8 8 0 0 1 200 336 L 200 256 M 200 256 A 8 8 0 0 1 208 248 L 264 248" stroke-miterlimit="10"/></g><g transform="translate(-38,2) scale(1,1)"><path fill="none" stroke="#000000" d="M 253.83732514237585 252.209517756016 L 264 248 L 253.83732514237585 243.790482243984" stroke-miterlimit="10"/></g><g transform="translate(-38,2) scale(1,1)"><g><path fill="none" stroke="none"/><text fill="#000000" stroke="none" font-family="Arial" font-size="13px" font-style="normal" font-weight="normal" text-decoration="none" x="178.5" y="301.5">否</text></g></g><g transform="translate(-38,2) scale(1,1)"><path fill="none" stroke="#000000" d="M 306 176 L 306 232" stroke-miterlimit="10"/></g><g transform="translate(-38,2) scale(1,1)"><path fill="none" stroke="#000000" d="M 301.790482243984 221.83732514237585 L 306 232 L 310.209517756016 221.83732514237585" stroke-miterlimit="10"/></g><g transform="translate(-38,2) scale(1,1)"><g><path fill="none" stroke="none"/><text fill="#000000" stroke="none" font-family="Arial" font-size="13px" font-style="normal" font-weight="normal" text-decoration="none" x="285" y="386">识别成功</text></g></g><g transform="translate(-38,2) scale(1,1)"><path fill="#C0C0C0" stroke="none" d="M 473 311 L 607.79296875 311 Q 617.79296875 311 617.79296875 321 L 617.79296875 356 Q 617.79296875 366 607.79296875 366 L 473 366 Q 463 366 463 356 L 463 321 Q 463 311 473 311 Z" opacity="0.2"/></g><g transform="translate(-38,2) scale(1,1)"><path fill="#ffffff" stroke="none" d="M 466 304 L 600.79296875 304 Q 610.79296875 304 610.79296875 314 L 610.79296875 349 Q 610.79296875 359 600.79296875 359 L 466 359 Q 456 359 456 349 L 456 314 Q 456 304 466 304 Z"/></g><g transform="translate(-38,2) scale(1,1)"><path fill="none" stroke="#000000" d="M 466 304 L 600.79296875 304 Q 610.79296875 304 610.79296875 314 L 610.79296875 349 Q 610.79296875 359 600.79296875 359 L 466 359 Q 456 359 456 349 L 456 314 Q 456 304 466 304 Z" stroke-miterlimit="10"/></g><g transform="translate(-38,2) scale(1,1)"><g><path fill="none" stroke="none"/><text fill="#000000" stroke="none" font-family="Arial" font-size="13px" font-style="normal" font-weight="bold" text-decoration="none" x="461.896484375" y="323.5">小人走出传送门并打招呼</text></g></g><g transform="translate(-38,2) scale(1,1)"><path fill="none" stroke="#000000" d="M 527 272 L 527 304" stroke-miterlimit="10"/></g><g transform="translate(-38,2) scale(1,1)"><path fill="none" stroke="#000000" d="M 522.790482243984 293.83732514237585 L 527 304 L 531.209517756016 293.83732514237585" stroke-miterlimit="10"/></g><g transform="translate(-38,2) scale(1,1)"><path fill="#C0C0C0" stroke="none" d="M 265 551 L 386.5390625 551 Q 396.5390625 551 396.5390625 561 L 396.5390625 581 Q 396.5390625 591 386.5390625 591 L 265 591 Q 255 591 255 581 L 255 561 Q 255 551 265 551 Z" opacity="0.2"/></g><g transform="translate(-38,2) scale(1,1)"><path fill="#ffffff" stroke="none" d="M 258 544 L 379.5390625 544 Q 389.5390625 544 389.5390625 554 L 389.5390625 574 Q 389.5390625 584 379.5390625 584 L 258 584 Q 248 584 248 574 L 248 554 Q 248 544 258 544 Z"/></g><g transform="translate(-38,2) scale(1,1)"><path fill="none" stroke="#000000" d="M 258 544 L 379.5390625 544 Q 389.5390625 544 389.5390625 554 L 389.5390625 574 Q 389.5390625 584 379.5390625 584 L 258 584 Q 248 584 248 574 L 248 554 Q 248 544 258 544 Z" stroke-miterlimit="10"/></g><g transform="translate(-38,2) scale(1,1)"><g><path fill="none" stroke="none"/><text fill="#000000" stroke="none" font-family="Arial" font-size="13px" font-style="normal" font-weight="bold" text-decoration="none" x="253.76953125" y="563.5">等待用户输入（点击）</text></g></g><g transform="translate(-38,2) scale(1,1)"><path fill="#C0C0C0" stroke="none" d="M 489 575 L 637 575 Q 647 575 647 585 L 647 636 Q 647 646 637 646 L 489 646 Q 479 646 479 636 L 479 585 Q 479 575 489 575 Z" opacity="0.2"/></g><g transform="translate(-38,2) scale(1,1)"><path fill="#ffd6ad" stroke="none" d="M 482 568 L 630 568 Q 640 568 640 578 L 640 629 Q 640 639 630 639 L 482 639 Q 472 639 472 629 L 472 578 Q 472 568 482 568 Z"/></g><g transform="translate(-38,2) scale(1,1)"><path fill="none" stroke="#000000" d="M 482 568 L 630 568 Q 640 568 640 578 L 640 629 Q 640 639 630 639 L 482 639 Q 472 639 472 629 L 472 578 Q 472 568 482 568 Z" stroke-miterlimit="10"/></g><g transform="translate(-38,2) scale(1,1)"><g><path fill="none" stroke="none"/><text fill="#000000" stroke="none" font-family="Arial" font-size="13px" font-style="normal" font-weight="bold" text-decoration="none" x="497.5" y="587.5">小人随机在纸面走动</text></g></g><g transform="translate(-38,2) scale(1,1)"><path fill="#C0C0C0" stroke="none" d="M 217 727 L 338.5390625 727 Q 348.5390625 727 348.5390625 737 L 348.5390625 772 Q 348.5390625 782 338.5390625 782 L 217 782 Q 207 782 207 772 L 207 737 Q 207 727 217 727 Z" opacity="0.2"/></g><g transform="translate(-38,2) scale(1,1)"><path fill="#ffffff" stroke="none" d="M 210 720 L 331.5390625 720 Q 341.5390625 720 341.5390625 730 L 341.5390625 765 Q 341.5390625 775 331.5390625 775 L 210 775 Q 200 775 200 765 L 200 730 Q 200 720 210 720 Z"/></g><g transform="translate(-38,2) scale(1,1)"><path fill="none" stroke="#000000" d="M 210 720 L 331.5390625 720 Q 341.5390625 720 341.5390625 730 L 341.5390625 765 Q 341.5390625 775 331.5390625 775 L 210 775 Q 200 775 200 765 L 200 730 Q 200 720 210 720 Z" stroke-miterlimit="10"/></g><g transform="translate(-38,2) scale(1,1)"><g><path fill="none" stroke="none"/><text fill="#000000" stroke="none" font-family="Arial" font-size="13px" font-style="normal" font-weight="bold" text-decoration="none" x="205.76953125" y="739.5">用户点击屏幕中的纸面</text></g></g><g transform="translate(-38,2) scale(1,1)"><path fill="#C0C0C0" stroke="none" d="M 369 727 L 460 727 Q 470 727 470 737 L 470 764 Q 470 774 460 774 L 369 774 Q 359 774 359 764 L 359 737 Q 359 727 369 727 Z" opacity="0.2"/></g><g transform="translate(-38,2) scale(1,1)"><path fill="#ffffff" stroke="none" d="M 362 720 L 453 720 Q 463 720 463 730 L 463 757 Q 463 767 453 767 L 362 767 Q 352 767 352 757 L 352 730 Q 352 720 362 720 Z"/></g><g transform="translate(-38,2) scale(1,1)"><path fill="none" stroke="#000000" d="M 362 720 L 453 720 Q 463 720 463 730 L 463 757 Q 463 767 453 767 L 362 767 Q 352 767 352 757 L 352 730 Q 352 720 362 720 Z" stroke-miterlimit="10"/></g><g transform="translate(-38,2) scale(1,1)"><g><path fill="none" stroke="none"/><text fill="#000000" stroke="none" font-family="Arial" font-size="13px" font-style="normal" font-weight="bold" text-decoration="none" x="368.5" y="739.5">用户点击小人</text></g></g><g transform="translate(-38,2) scale(1,1)"><path fill="#C0C0C0" stroke="none" d="M 242 647 L 345 647 Q 348 647 348 650 L 348 649 Q 348 652 345 652 L 242 652 Q 239 652 239 649 L 239 650 Q 239 647 242 647 Z" opacity="0.2"/></g><g transform="translate(-38,2) scale(1,1)"><path fill="#000000" stroke="none" d="M 235 640 L 338 640 Q 341 640 341 643 L 341 643 Q 341 646 338 646 L 235 646 Q 232 646 232 643 L 232 643 Q 232 640 235 640 Z"/></g><g transform="translate(-38,2) scale(1,1)"><path fill="none" stroke="#000000" d="M 304 584 L 304 640" stroke-miterlimit="10"/></g><g transform="translate(-38,2) scale(1,1)"><path fill="none" stroke="#000000" d="M 299.790482243984 629.8373251423759 L 304 640 L 308.209517756016 629.8373251423759" stroke-miterlimit="10"/></g><g transform="translate(-38,2) scale(1,1)"><path fill="none" stroke="#000000" d="M 272 645 L 272 720" stroke-miterlimit="10"/></g><g transform="translate(-38,2) scale(1,1)"><path fill="none" stroke="#000000" d="M 267.790482243984 709.8373251423759 L 272 720 L 276.209517756016 709.8373251423759" stroke-miterlimit="10"/></g><g transform="translate(-38,2) scale(1,1)"><path fill="none" stroke="#000000" d="M 320 645 L 320 656 M 320 656 A 8 8 0 0 0 328 664 L 368 664 M 368 664 A 8 8 0 0 1 376 672 L 376 720" stroke-miterlimit="10"/></g><g transform="translate(-38,2) scale(1,1)"><path fill="none" stroke="#000000" d="M 371.790482243984 709.8373251423759 L 376 720 L 380.209517756016 709.8373251423759" stroke-miterlimit="10"/></g><g transform="translate(-38,2) scale(1,1)"><path fill="#C0C0C0" stroke="none" d="M 513 487 L 608.03125 487 Q 618.03125 487 618.03125 497 L 618.03125 517 Q 618.03125 527 608.03125 527 L 513 527 Q 503 527 503 517 L 503 497 Q 503 487 513 487 Z" opacity="0.2"/></g><g transform="translate(-38,2) scale(1,1)"><path fill="#ffffff" stroke="none" d="M 506 480 L 601.03125 480 Q 611.03125 480 611.03125 490 L 611.03125 510 Q 611.03125 520 601.03125 520 L 506 520 Q 496 520 496 510 L 496 490 Q 496 480 506 480 Z"/></g><g transform="translate(-38,2) scale(1,1)"><path fill="none" stroke="#000000" d="M 506 480 L 601.03125 480 Q 611.03125 480 611.03125 490 L 611.03125 510 Q 611.03125 520 601.03125 520 L 506 520 Q 496 520 496 510 L 496 490 Q 496 480 506 480 Z" stroke-miterlimit="10"/></g><g transform="translate(-38,2) scale(1,1)"><g><path fill="none" stroke="none"/><text fill="#000000" stroke="none" font-family="Arial" font-size="13px" font-style="normal" font-weight="bold" text-decoration="none" x="501.515625" y="499.5">纸面上出现关键点</text></g></g><g transform="translate(-38,2) scale(1,1)"><path fill="#C0C0C0" stroke="none" d="M 81 735 L 162.77734375 735 Q 172.77734375 735 172.77734375 745 L 172.77734375 765 Q 172.77734375 775 162.77734375 775 L 81 775 Q 71 775 71 765 L 71 745 Q 71 735 81 735 Z" opacity="0.2"/></g><g transform="translate(-38,2) scale(1,1)"><path fill="#ffffff" stroke="none" d="M 74 728 L 155.77734375 728 Q 165.77734375 728 165.77734375 738 L 165.77734375 758 Q 165.77734375 768 155.77734375 768 L 74 768 Q 64 768 64 758 L 64 738 Q 64 728 74 728 Z"/></g><g transform="translate(-38,2) scale(1,1)"><path fill="none" stroke="#000000" d="M 74 728 L 155.77734375 728 Q 165.77734375 728 165.77734375 738 L 165.77734375 758 Q 165.77734375 768 155.77734375 768 L 74 768 Q 64 768 64 758 L 64 738 Q 64 728 74 728 Z" stroke-miterlimit="10"/></g><g transform="translate(-38,2) scale(1,1)"><g><path fill="none" stroke="none"/><text fill="#000000" stroke="none" font-family="Arial" font-size="13px" font-style="normal" font-weight="bold" text-decoration="none" x="69.388671875" y="747.5">用户点击关键点</text></g></g><g transform="translate(-38,2) scale(1,1)"><path fill="#e2e2e2" stroke="none" d="M 616 472 L 701 472 L 711 482 L 711 548 L 616 548 L 616 472"/></g><g transform="translate(-38,2) scale(1,1)"><path fill="none" stroke="#000000" d="M 616 472 L 701 472 L 711 482 L 711 548 L 616 548 L 616 472 L 616 472" stroke-miterlimit="10"/></g><g transform="translate(-38,2) scale(1,1)"><path fill="none" stroke="#000000" d="M 701 472 L 701 482 L 711 482 L 701 472" stroke-miterlimit="10"/></g><g transform="translate(-38,2) scale(1,1)"><g><path fill="none" stroke="none"/><text fill="#000000" stroke="none" font-family="Arial" font-size="11px" font-style="normal" font-weight="normal" text-decoration="none" x="621" y="488">关键点是一些</text><text fill="#000000" stroke="none" font-family="Arial" font-size="11px" font-style="normal" font-weight="normal" text-decoration="none" x="621" y="499">在扫面图片成功</text><text fill="#000000" stroke="none" font-family="Arial" font-size="11px" font-style="normal" font-weight="normal" text-decoration="none" x="621" y="510">后会出现在纸面</text><text fill="#000000" stroke="none" font-family="Arial" font-size="11px" font-style="normal" font-weight="normal" text-decoration="none" x="621" y="521">上的虚拟按钮，</text><text fill="#000000" stroke="none" font-family="Arial" font-size="11px" font-style="normal" font-weight="normal" text-decoration="none" x="621" y="532">点击以后可以触</text><text fill="#000000" stroke="none" font-family="Arial" font-size="11px" font-style="normal" font-weight="normal" text-decoration="none" x="621" y="543">发其他事件</text></g></g><g transform="translate(-38,2) scale(1,1)"><path fill="none" stroke="#000000" d="M 256 645 L 256 664 M 256 664 A 8 8 0 0 1 248 672 L 138 672 M 138 672 A 8 8 0 0 0 130 680 L 130 728" stroke-miterlimit="10"/></g><g transform="translate(-38,2) scale(1,1)"><path fill="none" stroke="#000000" d="M 125.79048224398402 717.8373251423759 L 130 728 L 134.209517756016 717.8373251423759" stroke-miterlimit="10"/></g><g transform="translate(-38,2) scale(1,1)"><path fill="none" stroke="#000000" d="M 556 520 L 556 568" stroke-miterlimit="10"/></g><g transform="translate(-38,2) scale(1,1)"><path fill="none" stroke="#000000" d="M 551.790482243984 557.8373251423759 L 556 568 L 560.209517756016 557.8373251423759" stroke-miterlimit="10"/></g><g transform="translate(-38,2) scale(1,1)"><path fill="none" stroke="#000000" d="M 472 592 L 448 592 M 448 592 A 8 8 0 0 1 440 584 L 440 560 M 440 560 A 8 8 0 0 0 432 552 L 390 552" stroke-miterlimit="10"/></g><g transform="translate(-38,2) scale(1,1)"><path fill="none" stroke="#000000" d="M 400.16267485762415 547.790482243984 L 390 552 L 400.16267485762415 556.209517756016" stroke-miterlimit="10"/></g><g transform="translate(-38,2) scale(1,1)"><path fill="#C0C0C0" stroke="none" d="M 553 815 L 727.5546875 815 Q 737.5546875 815 737.5546875 825 L 737.5546875 845 Q 737.5546875 855 727.5546875 855 L 553 855 Q 543 855 543 845 L 543 825 Q 543 815 553 815 Z" opacity="0.2"/></g><g transform="translate(-38,2) scale(1,1)"><path fill="#ffffff" stroke="none" d="M 546 808 L 720.5546875 808 Q 730.5546875 808 730.5546875 818 L 730.5546875 838 Q 730.5546875 848 720.5546875 848 L 546 848 Q 536 848 536 838 L 536 818 Q 536 808 546 808 Z"/></g><g transform="translate(-38,2) scale(1,1)"><path fill="none" stroke="#000000" d="M 546 808 L 720.5546875 808 Q 730.5546875 808 730.5546875 818 L 730.5546875 838 Q 730.5546875 848 720.5546875 848 L 546 848 Q 536 848 536 838 L 536 818 Q 536 808 546 808 Z" stroke-miterlimit="10"/></g><g transform="translate(-38,2) scale(1,1)"><g><path fill="none" stroke="none"/><text fill="#000000" stroke="none" font-family="Arial" font-size="13px" font-style="normal" font-weight="bold" text-decoration="none" x="542.27734375" y="827.5">产生交互效果（播放小人动画）</text></g></g><g transform="translate(-38,2) scale(1,1)"><path fill="#C0C0C0" stroke="none" d="M 617 879 L 725.28515625 879 Q 735.28515625 879 735.28515625 889 L 735.28515625 909 Q 735.28515625 919 725.28515625 919 L 617 919 Q 607 919 607 909 L 607 889 Q 607 879 617 879 Z" opacity="0.2"/></g><g transform="translate(-38,2) scale(1,1)"><path fill="#ffffff" stroke="none" d="M 610 872 L 718.28515625 872 Q 728.28515625 872 728.28515625 882 L 728.28515625 902 Q 728.28515625 912 718.28515625 912 L 610 912 Q 600 912 600 902 L 600 882 Q 600 872 610 872 Z"/></g><g transform="translate(-38,2) scale(1,1)"><path fill="none" stroke="#000000" d="M 610 872 L 718.28515625 872 Q 728.28515625 872 728.28515625 882 L 728.28515625 902 Q 728.28515625 912 718.28515625 912 L 610 912 Q 600 912 600 902 L 600 882 Q 600 872 610 872 Z" stroke-miterlimit="10"/></g><g transform="translate(-38,2) scale(1,1)"><g><path fill="none" stroke="none"/><text fill="#000000" stroke="none" font-family="Arial" font-size="13px" font-style="normal" font-weight="bold" text-decoration="none" x="605.642578125" y="891.5">小人走向点击的位置</text></g></g><g transform="translate(-38,2) scale(1,1)"><path fill="none" stroke="#000000" d="M 399 767 L 399 820 M 399 820 A 8 8 0 0 0 407 828 L 536 828" stroke-miterlimit="10"/></g><g transform="translate(-38,2) scale(1,1)"><path fill="none" stroke="#000000" d="M 525.8373251423759 832.209517756016 L 536 828 L 525.8373251423758 823.790482243984" stroke-miterlimit="10"/></g><g transform="translate(-38,2) scale(1,1)"><path fill="none" stroke="#000000" d="M 254 775 L 254 884 M 254 884 A 8 8 0 0 0 262 892 L 600 892" stroke-miterlimit="10"/></g><g transform="translate(-38,2) scale(1,1)"><path fill="none" stroke="#000000" d="M 589.8373251423759 896.209517756016 L 600 892 L 589.8373251423758 887.790482243984" stroke-miterlimit="10"/></g><g transform="translate(-38,2) scale(1,1)"><path fill="#C0C0C0" stroke="none" d="M 674 639 L 673 639 Q 676 639 676 642 L 676 796 Q 676 799 673 799 L 674 799 Q 671 799 671 796 L 671 642 Q 671 639 674 639 Z" opacity="0.2"/></g><g transform="translate(-38,2) scale(1,1)"><path fill="#000000" stroke="none" d="M 667 632 L 667 632 Q 670 632 670 635 L 670 789 Q 670 792 667 792 L 667 792 Q 664 792 664 789 L 664 635 Q 664 632 667 632 Z"/></g><g transform="translate(-38,2) scale(1,1)"><path fill="none" stroke="#000000" d="M 731 824 L 744 824 M 744 824 A 8 8 0 0 0 752 816 L 752 792 M 752 792 A 8 8 0 0 0 744 784 L 669 784" stroke-miterlimit="10"/></g><g transform="translate(-38,2) scale(1,1)"><path fill="none" stroke="#000000" d="M 679.1626748576241 779.790482243984 L 669 784 L 679.1626748576241 788.209517756016" stroke-miterlimit="10"/></g><g transform="translate(-38,2) scale(1,1)"><path fill="none" stroke="#000000" d="M 728 896 L 768 896 M 768 896 A 8 8 0 0 0 776 888 L 776 768 M 776 768 A 8 8 0 0 0 768 760 L 669 760" stroke-miterlimit="10"/></g><g transform="translate(-38,2) scale(1,1)"><path fill="none" stroke="#000000" d="M 679.1626748576241 755.790482243984 L 669 760 L 679.1626748576241 764.209517756016" stroke-miterlimit="10"/></g><g transform="translate(-38,2) scale(1,1)"><path fill="#C0C0C0" stroke="none" d="M 169 1023 L 290.28515625 1023 Q 300.28515625 1023 300.28515625 1033 L 300.28515625 1053 Q 300.28515625 1063 290.28515625 1063 L 169 1063 Q 159 1063 159 1053 L 159 1033 Q 159 1023 169 1023 Z" opacity="0.2"/></g><g transform="translate(-38,2) scale(1,1)"><path fill="#d8d8ff" stroke="none" d="M 162 1016 L 283.28515625 1016 Q 293.28515625 1016 293.28515625 1026 L 293.28515625 1046 Q 293.28515625 1056 283.28515625 1056 L 162 1056 Q 152 1056 152 1046 L 152 1026 Q 152 1016 162 1016 Z"/></g><g transform="translate(-38,2) scale(1,1)"><path fill="none" stroke="#000000" d="M 162 1016 L 283.28515625 1016 Q 293.28515625 1016 293.28515625 1026 L 293.28515625 1046 Q 293.28515625 1056 283.28515625 1056 L 162 1056 Q 152 1056 152 1046 L 152 1026 Q 152 1016 162 1016 Z" stroke-miterlimit="10"/></g><g transform="translate(-38,2) scale(1,1)"><g><path fill="none" stroke="none"/><text fill="#000000" stroke="none" font-family="Arial" font-size="13px" font-style="normal" font-weight="bold" text-decoration="none" x="159.8134765625" y="1035.5">点击“留下感想”关键点</text></g></g><g transform="translate(-38,2) scale(1,1)"><path fill="#C0C0C0" stroke="none" d="M 130 927 L 227 927 Q 230 927 230 930 L 230 929 Q 230 932 227 932 L 130 932 Q 127 932 127 929 L 127 930 Q 127 927 130 927 Z" opacity="0.2"/></g><g transform="translate(-38,2) scale(1,1)"><path fill="#000000" stroke="none" d="M 123 920 L 220 920 Q 223 920 223 923 L 223 923 Q 223 926 220 926 L 123 926 Q 120 926 120 923 L 120 923 Q 120 920 123 920 Z"/></g><g transform="translate(-38,2) scale(1,1)"><path fill="none" stroke="#000000" d="M 152 768 L 152 920" stroke-miterlimit="10"/></g><g transform="translate(-38,2) scale(1,1)"><path fill="none" stroke="#000000" d="M 147.790482243984 909.8373251423759 L 152 920 L 156.209517756016 909.8373251423759" stroke-miterlimit="10"/></g><g transform="translate(-38,2) scale(1,1)"><path fill="#C0C0C0" stroke="none" d="M 161 1103 L 308 1103 Q 318 1103 318 1113 L 318 1133 Q 318 1143 308 1143 L 161 1143 Q 151 1143 151 1133 L 151 1113 Q 151 1103 161 1103 Z" opacity="0.2"/></g><g transform="translate(-38,2) scale(1,1)"><path fill="#d8d8ff" stroke="none" d="M 154 1096 L 301 1096 Q 311 1096 311 1106 L 311 1126 Q 311 1136 301 1136 L 154 1136 Q 144 1136 144 1126 L 144 1106 Q 144 1096 154 1096 Z"/></g><g transform="translate(-38,2) scale(1,1)"><path fill="none" stroke="#000000" d="M 154 1096 L 301 1096 Q 311 1096 311 1106 L 311 1126 Q 311 1136 301 1136 L 154 1136 Q 144 1136 144 1126 L 144 1106 Q 144 1096 154 1096 Z" stroke-miterlimit="10"/></g><g transform="translate(-38,2) scale(1,1)"><g><path fill="none" stroke="none"/><text fill="#000000" stroke="none" font-family="Arial" font-size="13px" font-style="normal" font-weight="bold" text-decoration="none" x="164.6708984375" y="1115.5">点击”联系我们“关键点</text></g></g><g transform="translate(-38,2) scale(1,1)"><path fill="#C0C0C0" stroke="none" d="M 153 1183 L 316 1183 Q 326 1183 326 1193 L 326 1220 Q 326 1230 316 1230 L 153 1230 Q 143 1230 143 1220 L 143 1193 Q 143 1183 153 1183 Z" opacity="0.2"/></g><g transform="translate(-38,2) scale(1,1)"><path fill="#d8d8ff" stroke="none" d="M 146 1176 L 309 1176 Q 319 1176 319 1186 L 319 1213 Q 319 1223 309 1223 L 146 1223 Q 136 1223 136 1213 L 136 1186 Q 136 1176 146 1176 Z"/></g><g transform="translate(-38,2) scale(1,1)"><path fill="none" stroke="#000000" d="M 146 1176 L 309 1176 Q 319 1176 319 1186 L 319 1213 Q 319 1223 309 1223 L 146 1223 Q 136 1223 136 1213 L 136 1186 Q 136 1176 146 1176 Z" stroke-miterlimit="10"/></g><g transform="translate(-38,2) scale(1,1)"><g><path fill="none" stroke="none"/><text fill="#000000" stroke="none" font-family="Arial" font-size="13px" font-style="normal" font-weight="bold" text-decoration="none" x="164.6708984375" y="1195.5">点击”科云介绍“关键点</text></g></g><g transform="translate(-38,2) scale(1,1)"><path fill="none" stroke="#000000" d="M 200 925 L 200 1016" stroke-miterlimit="10"/></g><g transform="translate(-38,2) scale(1,1)"><path fill="none" stroke="#000000" d="M 195.790482243984 1005.8373251423759 L 200 1016 L 204.209517756016 1005.8373251423759" stroke-miterlimit="10"/></g><g transform="translate(-38,2) scale(1,1)"><path fill="none" stroke="#000000" d="M 192 925 L 192 992 M 192 992 A 8 8 0 0 1 184 1000 L 136 1000 M 136 1000 A 8 8 0 0 0 128 1008 L 128 1104 M 128 1104 A 8 8 0 0 0 136 1112 L 144 1112" stroke-miterlimit="10"/></g><g transform="translate(-38,2) scale(1,1)"><path fill="none" stroke="#000000" d="M 133.83732514237585 1116.2095177560159 L 144 1112 L 133.83732514237585 1107.7904822439841" stroke-miterlimit="10"/></g><g transform="translate(-38,2) scale(1,1)"><path fill="none" stroke="#000000" d="M 184 925 L 184 976 M 184 976 A 8 8 0 0 1 176 984 L 120 984 M 120 984 A 8 8 0 0 0 112 992 L 112 1192 M 112 1192 A 8 8 0 0 0 120 1200 L 136 1200" stroke-miterlimit="10"/></g><g transform="translate(-38,2) scale(1,1)"><path fill="none" stroke="#000000" d="M 125.83732514237585 1204.2095177560159 L 136 1200 L 125.83732514237585 1195.7904822439841" stroke-miterlimit="10"/></g><g transform="translate(-38,2) scale(1,1)"><path fill="none" stroke="#000000" d="M 664 706 L 568 706 M 568 706 A 8 8 0 0 1 560 698 L 560 639" stroke-miterlimit="10"/></g><g transform="translate(-38,2) scale(1,1)"><path fill="none" stroke="#000000" d="M 564.209517756016 649.1626748576241 L 560 639 L 555.790482243984 649.1626748576241" stroke-miterlimit="10"/></g><g transform="translate(-38,2) scale(1,1)"><path fill="#C0C0C0" stroke="none" d="M 457 407 L 618.30078125 407 Q 628.30078125 407 628.30078125 417 L 628.30078125 444 Q 628.30078125 454 618.30078125 454 L 457 454 Q 447 454 447 444 L 447 417 Q 447 407 457 407 Z" opacity="0.2"/></g><g transform="translate(-38,2) scale(1,1)"><path fill="#ffffff" stroke="none" d="M 450 400 L 611.30078125 400 Q 621.30078125 400 621.30078125 410 L 621.30078125 437 Q 621.30078125 447 611.30078125 447 L 450 447 Q 440 447 440 437 L 440 410 Q 440 400 450 400 Z"/></g><g transform="translate(-38,2) scale(1,1)"><path fill="none" stroke="#000000" d="M 450 400 L 611.30078125 400 Q 621.30078125 400 621.30078125 410 L 621.30078125 437 Q 621.30078125 447 611.30078125 447 L 450 447 Q 440 447 440 437 L 440 410 Q 440 400 450 400 Z" stroke-miterlimit="10"/></g><g transform="translate(-38,2) scale(1,1)"><g><path fill="none" stroke="none"/><text fill="#000000" stroke="none" font-family="Arial" font-size="13px" font-style="normal" font-weight="bold" text-decoration="none" x="446.150390625" y="419.5">在纸面右侧出现游客留言内容</text></g></g><g transform="translate(-38,2) scale(1,1)"><path fill="none" stroke="#000000" d="M 532 359 L 532 400" stroke-miterlimit="10"/></g><g transform="translate(-38,2) scale(1,1)"><path fill="none" stroke="#000000" d="M 527.790482243984 389.83732514237585 L 532 400 L 536.209517756016 389.83732514237585" stroke-miterlimit="10"/></g><g transform="translate(-38,2) scale(1,1)"><path fill="none" stroke="#000000" d="M 537 447 L 537 480" stroke-miterlimit="10"/></g><g transform="translate(-38,2) scale(1,1)"><path fill="none" stroke="#000000" d="M 532.790482243984 469.83732514237585 L 537 480 L 541.209517756016 469.83732514237585" stroke-miterlimit="10"/></g><g transform="translate(-38,2) scale(1,1)"><path fill="#C0C0C0" stroke="none" d="M 337 1023 L 437 1023 Q 447 1023 447 1033 L 447 1053 Q 447 1063 437 1063 L 337 1063 Q 327 1063 327 1053 L 327 1033 Q 327 1023 337 1023 Z" opacity="0.2"/></g><g transform="translate(-38,2) scale(1,1)"><path fill="#ffffff" stroke="none" d="M 330 1016 L 430 1016 Q 440 1016 440 1026 L 440 1046 Q 440 1056 430 1056 L 330 1056 Q 320 1056 320 1046 L 320 1026 Q 320 1016 330 1016 Z"/></g><g transform="translate(-38,2) scale(1,1)"><path fill="none" stroke="#000000" d="M 330 1016 L 430 1016 Q 440 1016 440 1026 L 440 1046 Q 440 1056 430 1056 L 330 1056 Q 320 1056 320 1046 L 320 1026 Q 320 1016 330 1016 Z" stroke-miterlimit="10"/></g><g transform="translate(-38,2) scale(1,1)"><g><path fill="none" stroke="none"/><text fill="#000000" stroke="none" font-family="Arial" font-size="13px" font-style="normal" font-weight="bold" text-decoration="none" x="328" y="1035.5">弹出用户留言界面</text></g></g><g transform="translate(-38,2) scale(1,1)"><path fill="#C0C0C0" stroke="none" d="M 551 1040.5 L 562.5 1031 L 573 1040.5 L 562.5 1049 L 551 1040.5" opacity="0.2"/></g><g transform="translate(-38,2) scale(1,1)"><path fill="#ffffff" stroke="none" d="M 544 1033 L 555 1024 L 566 1033 L 555 1042 L 544 1033"/></g><g transform="translate(-38,2) scale(1,1)"><path fill="none" stroke="#000000" d="M 544 1033 L 555 1024 L 566 1033 L 555 1042 L 544 1033 L 544 1033" stroke-miterlimit="10"/></g><g transform="translate(-38,2) scale(1,1)"><path fill="none" stroke="#000000" d="M 440 1033 L 544 1033" stroke-miterlimit="10"/></g><g transform="translate(-38,2) scale(1,1)"><path fill="none" stroke="#000000" d="M 533.8373251423759 1037.2095177560159 L 544 1033 L 533.8373251423758 1028.7904822439841" stroke-miterlimit="10"/></g><g transform="translate(-38,2) scale(1,1)"><g><path fill="none" stroke="none"/><text fill="#000000" stroke="none" font-family="Arial" font-size="13px" font-style="normal" font-weight="normal" text-decoration="none" x="450.5" y="1052.5">用户提交留言</text></g></g><g transform="translate(-38,2) scale(1,1)"><path fill="#C0C0C0" stroke="none" d="M 625 1023 L 746.5390625 1023 Q 756.5390625 1023 756.5390625 1033 L 756.5390625 1053 Q 756.5390625 1063 746.5390625 1063 L 625 1063 Q 615 1063 615 1053 L 615 1033 Q 615 1023 625 1023 Z" opacity="0.2"/></g><g transform="translate(-38,2) scale(1,1)"><path fill="#d8ffd8" stroke="none" d="M 618 1016 L 739.5390625 1016 Q 749.5390625 1016 749.5390625 1026 L 749.5390625 1046 Q 749.5390625 1056 739.5390625 1056 L 618 1056 Q 608 1056 608 1046 L 608 1026 Q 608 1016 618 1016 Z"/></g><g transform="translate(-38,2) scale(1,1)"><path fill="none" stroke="#000000" d="M 618 1016 L 739.5390625 1016 Q 749.5390625 1016 749.5390625 1026 L 749.5390625 1046 Q 749.5390625 1056 739.5390625 1056 L 618 1056 Q 608 1056 608 1046 L 608 1026 Q 608 1016 618 1016 Z" stroke-miterlimit="10"/></g><g transform="translate(-38,2) scale(1,1)"><g><path fill="none" stroke="none"/><text fill="#000000" stroke="none" font-family="Arial" font-size="13px" font-style="normal" font-weight="bold" text-decoration="none" x="613.76953125" y="1035.5">向服务器发起留言请求</text></g></g><g transform="translate(-38,2) scale(1,1)"><path fill="none" stroke="#000000" d="M 566 1033 L 608 1033" stroke-miterlimit="10"/></g><g transform="translate(-38,2) scale(1,1)"><path fill="none" stroke="#000000" d="M 597.8373251423759 1037.2095177560159 L 608 1033 L 597.8373251423758 1028.7904822439841" stroke-miterlimit="10"/></g><g transform="translate(-38,2) scale(1,1)"><g><path fill="none" stroke="none"/><text fill="#000000" stroke="none" font-family="Arial" font-size="13px" font-style="normal" font-weight="normal" text-decoration="none" x="580.5" y="1024.5">是</text></g></g><g transform="translate(-38,2) scale(1,1)"><path fill="none" stroke="#000000" d="M 552 1024 L 552 976 M 552 976 A 8 8 0 0 1 560 968 L 784 968 M 784 968 A 8 8 0 0 0 792 960 L 792 752 M 792 752 A 8 8 0 0 0 784 744 L 669 744" stroke-miterlimit="10"/></g><g transform="translate(-38,2) scale(1,1)"><path fill="none" stroke="#000000" d="M 679.1626748576241 739.790482243984 L 669 744 L 679.1626748576241 748.209517756016" stroke-miterlimit="10"/></g><g transform="translate(-38,2) scale(1,1)"><g><path fill="none" stroke="none"/><text fill="#000000" stroke="none" font-family="Arial" font-size="13px" font-style="normal" font-weight="normal" text-decoration="none" x="519.5" y="988.5">否</text></g></g><g transform="translate(-38,2) scale(1,1)"><path fill="none" stroke="#000000" d="M 293 1040 L 320 1040" stroke-miterlimit="10"/></g><g transform="translate(-38,2) scale(1,1)"><path fill="none" stroke="#000000" d="M 309.83732514237585 1044.2095177560159 L 320 1040 L 309.83732514237585 1035.7904822439841" stroke-miterlimit="10"/></g><g transform="translate(-38,2) scale(1,1)"><path fill="none" stroke="#000000" d="M 750 1032 L 800 1032 M 800 1032 A 8 8 0 0 0 808 1024 L 808 736 M 808 736 A 8 8 0 0 0 800 728 L 669 728" stroke-miterlimit="10"/></g><g transform="translate(-38,2) scale(1,1)"><path fill="none" stroke="#000000" d="M 679.1626748576241 723.790482243984 L 669 728 L 679.1626748576241 732.209517756016" stroke-miterlimit="10"/></g><g transform="translate(-38,2) scale(1,1)"><path fill="#C0C0C0" stroke="none" d="M 385 1183 L 548 1183 Q 558 1183 558 1193 L 558 1220 Q 558 1230 548 1230 L 385 1230 Q 375 1230 375 1220 L 375 1193 Q 375 1183 385 1183 Z" opacity="0.2"/></g><g transform="translate(-38,2) scale(1,1)"><path fill="#ffffff" stroke="none" d="M 378 1176 L 541 1176 Q 551 1176 551 1186 L 551 1213 Q 551 1223 541 1223 L 378 1223 Q 368 1223 368 1213 L 368 1186 Q 368 1176 378 1176 Z"/></g><g transform="translate(-38,2) scale(1,1)"><path fill="none" stroke="#000000" d="M 378 1176 L 541 1176 Q 551 1176 551 1186 L 551 1213 Q 551 1223 541 1223 L 378 1223 Q 368 1223 368 1213 L 368 1186 Q 368 1176 378 1176 Z" stroke-miterlimit="10"/></g><g transform="translate(-38,2) scale(1,1)"><g><path fill="none" stroke="none"/><text fill="#000000" stroke="none" font-family="Arial" font-size="13px" font-style="normal" font-weight="bold" text-decoration="none" x="375" y="1195.5">纸面出现视频，播放科云介绍</text></g></g><g transform="translate(-38,2) scale(1,1)"><path fill="none" stroke="#000000" d="M 320 1199 L 367 1199" stroke-miterlimit="10"/></g><g transform="translate(-38,2) scale(1,1)"><path fill="none" stroke="#000000" d="M 356.83732514237585 1203.2095177560159 L 367 1199 L 356.83732514237585 1194.7904822439841" stroke-miterlimit="10"/></g><g transform="translate(-38,2) scale(1,1)"><path fill="none" stroke="#000000" d="M 551 1199 L 848 1199 M 848 1199 A 8 8 0 0 0 856 1191 L 856 696 M 856 696 A 8 8 0 0 0 848 688 L 669 688" stroke-miterlimit="10"/></g><g transform="translate(-38,2) scale(1,1)"><path fill="none" stroke="#000000" d="M 679.1626748576241 683.790482243984 L 669 688 L 679.1626748576241 692.209517756016" stroke-miterlimit="10"/></g><g transform="translate(-38,2) scale(1,1)"><path fill="#C0C0C0" stroke="none" d="M 153 1271 L 317 1271 Q 327 1271 327 1281 L 327 1301 Q 327 1311 317 1311 L 153 1311 Q 143 1311 143 1301 L 143 1281 Q 143 1271 153 1271 Z" opacity="0.2"/></g><g transform="translate(-38,2) scale(1,1)"><path fill="#d8d8ff" stroke="none" d="M 146 1264 L 310 1264 Q 320 1264 320 1274 L 320 1294 Q 320 1304 310 1304 L 146 1304 Q 136 1304 136 1294 L 136 1274 Q 136 1264 146 1264 Z"/></g><g transform="translate(-38,2) scale(1,1)"><path fill="none" stroke="#000000" d="M 146 1264 L 310 1264 Q 320 1264 320 1274 L 320 1294 Q 320 1304 310 1304 L 146 1304 Q 136 1304 136 1294 L 136 1274 Q 136 1264 146 1264 Z" stroke-miterlimit="10"/></g><g transform="translate(-38,2) scale(1,1)"><g><path fill="none" stroke="none"/><text fill="#000000" stroke="none" font-family="Arial" font-size="13px" font-style="normal" font-weight="bold" text-decoration="none" x="169.141357421875" y="1283.5">点击“VR案例”关键点</text></g></g><g transform="translate(-38,2) scale(1,1)"><path fill="none" stroke="#000000" d="M 176 925 L 176 960 M 176 960 A 8 8 0 0 1 168 968 L 112 968 M 112 968 A 8 8 0 0 0 104 976 L 104 1272 M 104 1272 A 8 8 0 0 0 112 1280 L 136 1280" stroke-miterlimit="10"/></g><g transform="translate(-38,2) scale(1,1)"><path fill="none" stroke="#000000" d="M 125.83732514237585 1284.2095177560159 L 136 1280 L 125.83732514237585 1275.7904822439841" stroke-miterlimit="10"/></g><g transform="translate(-38,2) scale(1,1)"><path fill="#C0C0C0" stroke="none" d="M 377 1103 L 541 1103 Q 551 1103 551 1113 L 551 1140 Q 551 1150 541 1150 L 377 1150 Q 367 1150 367 1140 L 367 1113 Q 367 1103 377 1103 Z" opacity="0.2"/></g><g transform="translate(-38,2) scale(1,1)"><path fill="#ffffff" stroke="none" d="M 370 1096 L 534 1096 Q 544 1096 544 1106 L 544 1133 Q 544 1143 534 1143 L 370 1143 Q 360 1143 360 1133 L 360 1106 Q 360 1096 370 1096 Z"/></g><g transform="translate(-38,2) scale(1,1)"><path fill="none" stroke="#000000" d="M 370 1096 L 534 1096 Q 544 1096 544 1106 L 544 1133 Q 544 1143 534 1143 L 370 1143 Q 360 1143 360 1133 L 360 1106 Q 360 1096 370 1096 Z" stroke-miterlimit="10"/></g><g transform="translate(-38,2) scale(1,1)"><g><path fill="none" stroke="none"/><text fill="#000000" stroke="none" font-family="Arial" font-size="13px" font-style="normal" font-weight="bold" text-decoration="none" x="367.5" y="1115.5">弹出用户留下联系方式的界面</text></g></g><g transform="translate(-38,2) scale(1,1)"><path fill="#C0C0C0" stroke="none" d="M 655 1128.5 L 666.5 1119 L 677 1128.5 L 666.5 1137 L 655 1128.5" opacity="0.2"/></g><g transform="translate(-38,2) scale(1,1)"><path fill="#ffffff" stroke="none" d="M 648 1121 L 659 1112 L 670 1121 L 659 1130 L 648 1121"/></g><g transform="translate(-38,2) scale(1,1)"><path fill="none" stroke="#000000" d="M 648 1121 L 659 1112 L 670 1121 L 659 1130 L 648 1121 L 648 1121" stroke-miterlimit="10"/></g><g transform="translate(-38,2) scale(1,1)"><path fill="none" stroke="#000000" d="M 311 1118 L 360 1118" stroke-miterlimit="10"/></g><g transform="translate(-38,2) scale(1,1)"><path fill="none" stroke="#000000" d="M 349.83732514237585 1122.2095177560159 L 360 1118 L 349.83732514237585 1113.7904822439841" stroke-miterlimit="10"/></g><g transform="translate(-38,2) scale(1,1)"><path fill="none" stroke="#000000" d="M 544 1121 L 648 1121" stroke-miterlimit="10"/></g><g transform="translate(-38,2) scale(1,1)"><path fill="none" stroke="#000000" d="M 637.8373251423759 1125.2095177560159 L 648 1121 L 637.8373251423758 1116.7904822439841" stroke-miterlimit="10"/></g><g transform="translate(-38,2) scale(1,1)"><g><path fill="none" stroke="none"/><text fill="#000000" stroke="none" font-family="Arial" font-size="13px" font-style="normal" font-weight="normal" text-decoration="none" x="556.5" y="1112.5">提交联系方式</text></g></g><g transform="translate(-38,2) scale(1,1)"><path fill="#C0C0C0" stroke="none" d="M 721 1111 L 816.03125 1111 Q 826.03125 1111 826.03125 1121 L 826.03125 1141 Q 826.03125 1151 816.03125 1151 L 721 1151 Q 711 1151 711 1141 L 711 1121 Q 711 1111 721 1111 Z" opacity="0.2"/></g><g transform="translate(-38,2) scale(1,1)"><path fill="#d8ffd8" stroke="none" d="M 714 1104 L 809.03125 1104 Q 819.03125 1104 819.03125 1114 L 819.03125 1134 Q 819.03125 1144 809.03125 1144 L 714 1144 Q 704 1144 704 1134 L 704 1114 Q 704 1104 714 1104 Z"/></g><g transform="translate(-38,2) scale(1,1)"><path fill="none" stroke="#000000" d="M 714 1104 L 809.03125 1104 Q 819.03125 1104 819.03125 1114 L 819.03125 1134 Q 819.03125 1144 809.03125 1144 L 714 1144 Q 704 1144 704 1134 L 704 1114 Q 704 1104 714 1104 Z" stroke-miterlimit="10"/></g><g transform="translate(-38,2) scale(1,1)"><g><path fill="none" stroke="none"/><text fill="#000000" stroke="none" font-family="Arial" font-size="13px" font-style="normal" font-weight="bold" text-decoration="none" x="709.515625" y="1123.5">向服务器发起请求</text></g></g><g transform="translate(-38,2) scale(1,1)"><path fill="none" stroke="#000000" d="M 670 1122 L 704 1122" stroke-miterlimit="10"/></g><g transform="translate(-38,2) scale(1,1)"><path fill="none" stroke="#000000" d="M 693.8373251423759 1126.2095177560159 L 704 1122 L 693.8373251423758 1117.7904822439841" stroke-miterlimit="10"/></g><g transform="translate(-38,2) scale(1,1)"><g><path fill="none" stroke="none"/><text fill="#000000" stroke="none" font-family="Arial" font-size="13px" font-style="normal" font-weight="normal" text-decoration="none" x="680.5" y="1113.5">是</text></g></g><g transform="translate(-38,2) scale(1,1)"><path fill="none" stroke="#000000" d="M 656 1112 L 656 1088 M 656 1088 A 8 8 0 0 1 664 1080 L 816 1080 M 816 1080 A 8 8 0 0 0 824 1072 L 824 720 M 824 720 A 8 8 0 0 0 816 712 L 669 712" stroke-miterlimit="10"/></g><g transform="translate(-38,2) scale(1,1)"><path fill="none" stroke="#000000" d="M 679.1626748576241 707.790482243984 L 669 712 L 679.1626748576241 716.209517756016" stroke-miterlimit="10"/></g><g transform="translate(-38,2) scale(1,1)"><g><path fill="none" stroke="none"/><text fill="#000000" stroke="none" font-family="Arial" font-size="13px" font-style="normal" font-weight="normal" text-decoration="none" x="802.5" y="1212.5">否</text></g></g><g transform="translate(-38,2) scale(1,1)"><path fill="none" stroke="#000000" d="M 819 1120 L 832 1120 M 832 1120 A 8 8 0 0 0 840 1112 L 840 712 M 840 712 A 8 8 0 0 0 832 704 L 669 704" stroke-miterlimit="10"/></g><g transform="translate(-38,2) scale(1,1)"><path fill="none" stroke="#000000" d="M 679.1626748576241 699.790482243984 L 669 704 L 679.1626748576241 708.209517756016" stroke-miterlimit="10"/></g><g transform="translate(-38,2) scale(1,1)"><path fill="#C0C0C0" stroke="none" d="M 361 1271 L 540.35986328125 1271 Q 550.35986328125 1271 550.35986328125 1281 L 550.35986328125 1301 Q 550.35986328125 1311 540.35986328125 1311 L 361 1311 Q 351 1311 351 1301 L 351 1281 Q 351 1271 361 1271 Z" opacity="0.2"/></g><g transform="translate(-38,2) scale(1,1)"><path fill="#ffffff" stroke="none" d="M 354 1264 L 533.35986328125 1264 Q 543.35986328125 1264 543.35986328125 1274 L 543.35986328125 1294 Q 543.35986328125 1304 533.35986328125 1304 L 354 1304 Q 344 1304 344 1294 L 344 1274 Q 344 1264 354 1264 Z"/></g><g transform="translate(-38,2) scale(1,1)"><path fill="none" stroke="#000000" d="M 354 1264 L 533.35986328125 1264 Q 543.35986328125 1264 543.35986328125 1274 L 543.35986328125 1294 Q 543.35986328125 1304 533.35986328125 1304 L 354 1304 Q 344 1304 344 1294 L 344 1274 Q 344 1264 354 1264 Z" stroke-miterlimit="10"/></g><g transform="translate(-38,2) scale(1,1)"><g><path fill="none" stroke="none"/><text fill="#000000" stroke="none" font-family="Arial" font-size="13px" font-style="normal" font-weight="bold" text-decoration="none" x="369.650390625" y="1283.5">弹出VR样板间的预览效果</text></g></g><g transform="translate(-38,2) scale(1,1)"><path fill="none" stroke="#000000" d="M 320 1284 L 344 1284" stroke-miterlimit="10"/></g><g transform="translate(-38,2) scale(1,1)"><path fill="none" stroke="#000000" d="M 333.83732514237585 1288.2095177560159 L 344 1284 L 333.83732514237585 1279.7904822439841" stroke-miterlimit="10"/></g><g transform="translate(-38,2) scale(1,1)"><path fill="#C0C0C0" stroke="none" d="M 271 1376.5 L 282.5 1367 L 293 1376.5 L 282.5 1385 L 271 1376.5" opacity="0.2"/></g><g transform="translate(-38,2) scale(1,1)"><path fill="#ffffff" stroke="none" d="M 264 1369 L 275 1360 L 286 1369 L 275 1378 L 264 1369"/></g><g transform="translate(-38,2) scale(1,1)"><path fill="none" stroke="#000000" d="M 264 1369 L 275 1360 L 286 1369 L 275 1378 L 264 1369 L 264 1369" stroke-miterlimit="10"/></g><g transform="translate(-38,2) scale(1,1)"><path fill="none" stroke="#000000" d="M 464 1304 L 464 1336 M 464 1336 A 8 8 0 0 1 456 1344 L 280 1344 M 280 1344 A 8 8 0 0 0 272 1352 L 272 1360" stroke-miterlimit="10"/></g><g transform="translate(-38,2) scale(1,1)"><path fill="none" stroke="#000000" d="M 267.790482243984 1349.837325142376 L 272 1360 L 276.209517756016 1349.837325142376" stroke-miterlimit="10"/></g><g transform="translate(-38,2) scale(1,1)"><g><path fill="none" stroke="none"/><text fill="#000000" stroke="none" font-family="Arial" font-size="13px" font-style="normal" font-weight="normal" text-decoration="none" x="309.5" y="1339.5">用户点击“下载体验”</text></g></g><g transform="translate(-38,2) scale(1,1)"><path fill="#C0C0C0" stroke="none" d="M 225 1423 L 332 1423 Q 342 1423 342 1433 L 342 1453 Q 342 1463 332 1463 L 225 1463 Q 215 1463 215 1453 L 215 1433 Q 215 1423 225 1423 Z" opacity="0.2"/></g><g transform="translate(-38,2) scale(1,1)"><path fill="#ffffff" stroke="none" d="M 218 1416 L 325 1416 Q 335 1416 335 1426 L 335 1446 Q 335 1456 325 1456 L 218 1456 Q 208 1456 208 1446 L 208 1426 Q 208 1416 218 1416 Z"/></g><g transform="translate(-38,2) scale(1,1)"><path fill="none" stroke="#000000" d="M 218 1416 L 325 1416 Q 335 1416 335 1426 L 335 1446 Q 335 1456 325 1456 L 218 1456 Q 208 1456 208 1446 L 208 1426 Q 208 1416 218 1416 Z" stroke-miterlimit="10"/></g><g transform="translate(-38,2) scale(1,1)"><g><path fill="none" stroke="none"/><text fill="#000000" stroke="none" font-family="Arial" font-size="13px" font-style="normal" font-weight="bold" text-decoration="none" x="258.5" y="1435.5">下载</text></g></g><g transform="translate(-38,2) scale(1,1)"><path fill="none" stroke="#000000" d="M 275 1378 L 275 1416" stroke-miterlimit="10"/></g><g transform="translate(-38,2) scale(1,1)"><path fill="none" stroke="#000000" d="M 270.790482243984 1405.837325142376 L 275 1416 L 279.209517756016 1405.837325142376" stroke-miterlimit="10"/></g><g transform="translate(-38,2) scale(1,1)"><g><path fill="none" stroke="none"/><text fill="#000000" stroke="none" font-family="Arial" font-size="13px" font-style="normal" font-weight="normal" text-decoration="none" x="282.5" y="1402.5">是</text></g></g><g transform="translate(-38,2) scale(1,1)"><path fill="#C0C0C0" stroke="none" d="M 522 1359 L 521 1359 Q 524 1359 524 1362 L 524 1467 Q 524 1470 521 1470 L 522 1470 Q 519 1470 519 1467 L 519 1362 Q 519 1359 522 1359 Z" opacity="0.2"/></g><g transform="translate(-38,2) scale(1,1)"><path fill="#000000" stroke="none" d="M 515 1352 L 515 1352 Q 518 1352 518 1355 L 518 1460 Q 518 1463 515 1463 L 515 1463 Q 512 1463 512 1460 L 512 1355 Q 512 1352 515 1352 Z"/></g><g transform="translate(-38,2) scale(1,1)"><path fill="none" stroke="#000000" d="M 286 1368 L 512 1368" stroke-miterlimit="10"/></g><g transform="translate(-38,2) scale(1,1)"><path fill="none" stroke="#000000" d="M 501.83732514237585 1372.2095177560159 L 512 1368 L 501.83732514237585 1363.7904822439841" stroke-miterlimit="10"/></g><g transform="translate(-38,2) scale(1,1)"><g><path fill="none" stroke="none"/><text fill="#000000" stroke="none" font-family="Arial" font-size="13px" font-style="normal" font-weight="normal" text-decoration="none" x="392.5" y="1387.5">否</text></g></g><g transform="translate(-38,2) scale(1,1)"><path fill="none" stroke="#000000" d="M 335 1434 L 512 1434" stroke-miterlimit="10"/></g><g transform="translate(-38,2) scale(1,1)"><path fill="none" stroke="#000000" d="M 501.83732514237585 1438.2095177560159 L 512 1434 L 501.83732514237585 1429.7904822439841" stroke-miterlimit="10"/></g><g transform="translate(-38,2) scale(1,1)"><path fill="none" stroke="#000000" d="M 517 1393 L 864 1393 M 864 1393 A 8 8 0 0 0 872 1385 L 872 680 M 872 680 A 8 8 0 0 0 864 672 L 669 672" stroke-miterlimit="10"/></g><g transform="translate(-38,2) scale(1,1)"><path fill="none" stroke="#000000" d="M 679.1626748576241 667.790482243984 L 669 672 L 679.1626748576241 676.209517756016" stroke-miterlimit="10"/></g><g transform="translate(-38,2) scale(1,1)"><path fill="#C0C0C0" stroke="none" d="M 161 1519 L 356 1519 Q 366 1519 366 1529 L 366 1549 Q 366 1559 356 1559 L 161 1559 Q 151 1559 151 1549 L 151 1529 Q 151 1519 161 1519 Z" opacity="0.2"/></g><g transform="translate(-38,2) scale(1,1)"><path fill="#d8d8ff" stroke="none" d="M 154 1512 L 349 1512 Q 359 1512 359 1522 L 359 1542 Q 359 1552 349 1552 L 154 1552 Q 144 1552 144 1542 L 144 1522 Q 144 1512 154 1512 Z"/></g><g transform="translate(-38,2) scale(1,1)"><path fill="none" stroke="#000000" d="M 154 1512 L 349 1512 Q 359 1512 359 1522 L 359 1542 Q 359 1552 349 1552 L 154 1552 Q 144 1552 144 1542 L 144 1522 Q 144 1512 154 1512 Z" stroke-miterlimit="10"/></g><g transform="translate(-38,2) scale(1,1)"><g><path fill="none" stroke="none"/><text fill="#000000" stroke="none" font-family="Arial" font-size="13px" font-style="normal" font-weight="bold" text-decoration="none" x="188.6708984375" y="1531.5">点击“放点东西”关键点</text></g></g><g transform="translate(-38,2) scale(1,1)"><path fill="#ffffff" stroke="none" d="M 112 8 L 548 8 L 558 18 L 558 39 L 112 39 L 112 8"/></g><g transform="translate(-38,2) scale(1,1)"><path fill="none" stroke="#000000" d="M 112 8 L 548 8 L 558 18 L 558 39 L 112 39 L 112 8 L 112 8" stroke-miterlimit="10"/></g><g transform="translate(-38,2) scale(1,1)"><path fill="none" stroke="#000000" d="M 548 8 L 548 18 L 558 18 L 548 8" stroke-miterlimit="10"/></g><g transform="translate(-38,2) scale(1,1)"><g><path fill="none" stroke="none"/><text fill="#000000" stroke="none" font-family="Arial" font-size="13px" font-style="normal" font-weight="normal" text-decoration="none" x="117" y="26">客户端活动图</text></g></g><g transform="translate(-38,2) scale(1,1)"><path fill="none" stroke="#000000" d="M 152 925 L 152 952 M 152 952 A 8 8 0 0 1 144 960 L 96 960 M 96 960 A 8 8 0 0 0 88 968 L 88 1520 M 88 1520 A 8 8 0 0 0 96 1528 L 144 1528" stroke-miterlimit="10"/></g><g transform="translate(-38,2) scale(1,1)"><path fill="none" stroke="#000000" d="M 133.83732514237585 1532.2095177560159 L 144 1528 L 133.83732514237585 1523.7904822439841" stroke-miterlimit="10"/></g><g transform="translate(-38,2) scale(1,1)"><path fill="#C0C0C0" stroke="none" d="M 473 1519 L 687.31640625 1519 Q 697.31640625 1519 697.31640625 1529 L 697.31640625 1549 Q 697.31640625 1559 687.31640625 1559 L 473 1559 Q 463 1559 463 1549 L 463 1529 Q 463 1519 473 1519 Z" opacity="0.2"/></g><g transform="translate(-38,2) scale(1,1)"><path fill="#ffffff" stroke="none" d="M 466 1512 L 680.31640625 1512 Q 690.31640625 1512 690.31640625 1522 L 690.31640625 1542 Q 690.31640625 1552 680.31640625 1552 L 466 1552 Q 456 1552 456 1542 L 456 1522 Q 456 1512 466 1512 Z"/></g><g transform="translate(-38,2) scale(1,1)"><path fill="none" stroke="#000000" d="M 466 1512 L 680.31640625 1512 Q 690.31640625 1512 690.31640625 1522 L 690.31640625 1542 Q 690.31640625 1552 680.31640625 1552 L 466 1552 Q 456 1552 456 1542 L 456 1522 Q 456 1512 466 1512 Z" stroke-miterlimit="10"/></g><g transform="translate(-38,2) scale(1,1)"><g><path fill="none" stroke="none"/><text fill="#000000" stroke="none" font-family="Arial" font-size="13px" font-style="normal" font-weight="bold" text-decoration="none" x="462.658203125" y="1531.5">弹出模型列表，提示用户可以拖入场景</text></g></g><g transform="translate(-38,2) scale(1,1)"><path fill="#e2e2e2" stroke="none" d="M 464 1568 L 668 1568 L 678 1578 L 678 1606 L 464 1606 L 464 1568"/></g><g transform="translate(-38,2) scale(1,1)"><path fill="none" stroke="#000000" d="M 464 1568 L 668 1568 L 678 1578 L 678 1606 L 464 1606 L 464 1568 L 464 1568" stroke-miterlimit="10"/></g><g transform="translate(-38,2) scale(1,1)"><path fill="none" stroke="#000000" d="M 668 1568 L 668 1578 L 678 1578 L 668 1568" stroke-miterlimit="10"/></g><g transform="translate(-38,2) scale(1,1)"><g><path fill="none" stroke="none"/><text fill="#000000" stroke="none" font-family="Arial" font-size="13px" font-style="normal" font-weight="normal" text-decoration="none" x="469" y="1586">模型：如HTC VIVE，科云 3D</text><text fill="#000000" stroke="none" font-family="Arial" font-size="13px" font-style="normal" font-weight="normal" text-decoration="none" x="469" y="1599">logo等的模型</text></g></g><g transform="translate(-38,2) scale(1,1)"><path fill="none" stroke="#000000" d="M 359 1532 L 456 1532" stroke-miterlimit="10"/></g><g transform="translate(-38,2) scale(1,1)"><path fill="none" stroke="#000000" d="M 445.83732514237585 1536.2095177560159 L 456 1532 L 445.83732514237585 1527.7904822439841" stroke-miterlimit="10"/></g><g transform="translate(-38,2) scale(1,1)"><path fill="none" stroke="#000000" d="M 690 1536 L 880 1536 M 880 1536 A 8 8 0 0 0 888 1528 L 888 664 M 888 664 A 8 8 0 0 0 880 656 L 669 656" stroke-miterlimit="10"/></g><g transform="translate(-38,2) scale(1,1)"><path fill="none" stroke="#000000" d="M 679.1626748576241 651.790482243984 L 669 656 L 679.1626748576241 660.209517756016" stroke-miterlimit="10"/></g><g transform="translate(-38,2) scale(1,1)"><g><path fill="none" stroke="none"/><text fill="#000000" stroke="none" font-family="Arial" font-size="13px" font-style="normal" font-weight="normal" text-decoration="none" x="758.5" y="1532.5">结束</text></g></g><g transform="translate(-38,2) scale(1,1)"><path fill="#C0C0C0" stroke="none" d="M 153 1823 L 356 1823 Q 366 1823 366 1833 L 366 1884 Q 366 1894 356 1894 L 153 1894 Q 143 1894 143 1884 L 143 1833 Q 143 1823 153 1823 Z" opacity="0.2"/></g><g transform="translate(-38,2) scale(1,1)"><path fill="#ffadd6" stroke="none" d="M 146 1816 L 349 1816 Q 359 1816 359 1826 L 359 1877 Q 359 1887 349 1887 L 146 1887 Q 136 1887 136 1877 L 136 1826 Q 136 1816 146 1816 Z"/></g><g transform="translate(-38,2) scale(1,1)"><path fill="none" stroke="#000000" d="M 146 1816 L 349 1816 Q 359 1816 359 1826 L 359 1877 Q 359 1887 349 1887 L 146 1887 Q 136 1887 136 1877 L 136 1826 Q 136 1816 146 1816 Z" stroke-miterlimit="10"/></g><g transform="translate(-38,2) scale(1,1)"><g><path fill="none" stroke="none"/><text fill="#000000" stroke="none" font-family="Arial" font-size="13px" font-style="normal" font-weight="bold" text-decoration="none" x="221.5" y="1835.5">点击退出</text></g></g><g transform="translate(-38,2) scale(1,1)"><path fill="none" stroke="#000000" d="M 128 925 L 128 936 M 128 936 A 8 8 0 0 1 120 944 L 56 944 M 56 944 A 8 8 0 0 0 48 952 L 48 1864 M 48 1864 A 8 8 0 0 0 56 1872 L 136 1872" stroke-miterlimit="10"/></g><g transform="translate(-38,2) scale(1,1)"><path fill="none" stroke="#000000" d="M 125.83732514237585 1876.2095177560159 L 136 1872 L 125.83732514237585 1867.7904822439841" stroke-miterlimit="10"/></g><g transform="translate(-38,2) scale(1,1)"><path fill="#C0C0C0" stroke="none" d="M 239 2043.5 C 239 2036.59644 244.59644 2031 251.5 2031 C 258.40356 2031 264 2036.59644 264 2043.5 C 264 2050.40356 258.40356 2056 251.5 2056 C 244.59644 2056 239 2050.40356 239 2043.5 Z" opacity="0.2"/></g><g transform="translate(-38,2) scale(1,1)"><path fill="none" stroke="#000000" d="M 232 2036.5 C 232 2029.59644 237.59644 2024 244.5 2024 C 251.40356 2024 257 2029.59644 257 2036.5 C 257 2043.40356 251.40356 2049 244.5 2049 C 237.59644 2049 232 2043.40356 232 2036.5 Z" stroke-miterlimit="10"/></g><g transform="translate(-38,2) scale(1,1)"><path fill="#000000" stroke="none" d="M 237 2036.5 C 237 2032.357864 240.357864 2029 244.5 2029 C 248.642136 2029 252 2032.357864 252 2036.5 C 252 2040.642136 248.642136 2044 244.5 2044 C 240.357864 2044 237 2040.642136 237 2036.5 Z"/></g><g transform="translate(-38,2) scale(1,1)"><path fill="none" stroke="#000000" d="M 246 1887 L 246 2024" stroke-miterlimit="10"/></g><g transform="translate(-38,2) scale(1,1)"><path fill="none" stroke="#000000" d="M 241.790482243984 2013.837325142376 L 246 2024 L 250.209517756016 2013.837325142376" stroke-miterlimit="10"/></g><g transform="translate(-38,2) scale(1,1)"><path fill="#C0C0C0" stroke="none" d="M 161 1671 L 356 1671 Q 366 1671 366 1681 L 366 1708 Q 366 1718 356 1718 L 161 1718 Q 151 1718 151 1708 L 151 1681 Q 151 1671 161 1671 Z" opacity="0.2"/></g><g transform="translate(-38,2) scale(1,1)"><path fill="#d8d8ff" stroke="none" d="M 154 1664 L 349 1664 Q 359 1664 359 1674 L 359 1701 Q 359 1711 349 1711 L 154 1711 Q 144 1711 144 1701 L 144 1674 Q 144 1664 154 1664 Z"/></g><g transform="translate(-38,2) scale(1,1)"><path fill="none" stroke="#000000" d="M 154 1664 L 349 1664 Q 359 1664 359 1674 L 359 1701 Q 359 1711 349 1711 L 154 1711 Q 144 1711 144 1701 L 144 1674 Q 144 1664 154 1664 Z" stroke-miterlimit="10"/></g><g transform="translate(-38,2) scale(1,1)"><g><path fill="none" stroke="none"/><text fill="#000000" stroke="none" font-family="Arial" font-size="13px" font-style="normal" font-weight="bold" text-decoration="none" x="206" y="1683.5">点击管理员登录</text></g></g><g transform="translate(-38,2) scale(1,1)"><path fill="none" stroke="#000000" d="M 136 925 L 136 944 M 136 944 A 8 8 0 0 1 128 952 L 72 952 M 72 952 A 8 8 0 0 0 64 960 L 64 1680 M 64 1680 A 8 8 0 0 0 72 1688 L 144 1688" stroke-miterlimit="10"/></g><g transform="translate(-38,2) scale(1,1)"><path fill="none" stroke="#000000" d="M 133.83732514237585 1692.2095177560159 L 144 1688 L 133.83732514237585 1683.7904822439841" stroke-miterlimit="10"/></g><g transform="translate(-38,2) scale(1,1)"><path fill="#C0C0C0" stroke="none" d="M 505 1671 L 560.26953125 1671 Q 570.26953125 1671 570.26953125 1681 L 570.26953125 1701 Q 570.26953125 1711 560.26953125 1711 L 505 1711 Q 495 1711 495 1701 L 495 1681 Q 495 1671 505 1671 Z" opacity="0.2"/></g><g transform="translate(-38,2) scale(1,1)"><path fill="#ffffff" stroke="none" d="M 498 1664 L 553.26953125 1664 Q 563.26953125 1664 563.26953125 1674 L 563.26953125 1694 Q 563.26953125 1704 553.26953125 1704 L 498 1704 Q 488 1704 488 1694 L 488 1674 Q 488 1664 498 1664 Z"/></g><g transform="translate(-38,2) scale(1,1)"><path fill="none" stroke="#000000" d="M 498 1664 L 553.26953125 1664 Q 563.26953125 1664 563.26953125 1674 L 563.26953125 1694 Q 563.26953125 1704 553.26953125 1704 L 498 1704 Q 488 1704 488 1694 L 488 1674 Q 488 1664 498 1664 Z" stroke-miterlimit="10"/></g><g transform="translate(-38,2) scale(1,1)"><g><path fill="none" stroke="none"/><text fill="#000000" stroke="none" font-family="Arial" font-size="13px" font-style="normal" font-weight="bold" text-decoration="none" x="493.134765625" y="1683.5">管理员界面</text></g></g><g transform="translate(-38,2) scale(1,1)"><path fill="#e2e2e2" stroke="none" d="M 472 1720 L 740 1720 L 750 1730 L 750 1758 L 472 1758 L 472 1720"/></g><g transform="translate(-38,2) scale(1,1)"><path fill="none" stroke="#000000" d="M 472 1720 L 740 1720 L 750 1730 L 750 1758 L 472 1758 L 472 1720 L 472 1720" stroke-miterlimit="10"/></g><g transform="translate(-38,2) scale(1,1)"><path fill="none" stroke="#000000" d="M 740 1720 L 740 1730 L 750 1730 L 740 1720" stroke-miterlimit="10"/></g><g transform="translate(-38,2) scale(1,1)"><g><path fill="none" stroke="none"/><text fill="#000000" stroke="none" font-family="Arial" font-size="13px" font-style="normal" font-weight="normal" text-decoration="none" x="477" y="1738">主要功能：管理用户留言，用户联系方式等等</text></g></g><g transform="translate(-38,2) scale(1,1)"><path fill="none" stroke="#000000" d="M 359 1686 L 488 1686" stroke-miterlimit="10"/></g><g transform="translate(-38,2) scale(1,1)"><path fill="none" stroke="#000000" d="M 477.83732514237585 1690.2095177560159 L 488 1686 L 477.83732514237585 1681.7904822439841" stroke-miterlimit="10"/></g><g transform="translate(-38,2) scale(1,1)"><path fill="none" stroke="#000000" d="M 563 1680 L 896 1680 M 896 1680 A 8 8 0 0 0 904 1672 L 904 656 M 904 656 A 8 8 0 0 0 896 648 L 669 648" stroke-miterlimit="10"/></g><g transform="translate(-38,2) scale(1,1)"><path fill="none" stroke="#000000" d="M 679.1626748576241 643.790482243984 L 669 648 L 679.1626748576241 652.209517756016" stroke-miterlimit="10"/></g><g transform="translate(-38,2) scale(1,1)"><g><path fill="none" stroke="none"/><text fill="#000000" stroke="none" font-family="Arial" font-size="13px" font-style="normal" font-weight="normal" text-decoration="none" x="710.5" y="1676.5">结束</text></g></g></g></svg>