<svg version="1.1" xmlns="http://www.w3.org/2000/svg" xmlns:xlink="http://www.w3.org/1999/xlink" width="732" height="1716"><defs/><g><g transform="translate(-54,-102) scale(1,1)"><rect fill="#C0C0C0" stroke="none" x="247" y="119" width="226.15966796875" height="144" opacity="0.2"/></g><g transform="translate(-54,-102) scale(1,1)"><rect fill="#ffffff" stroke="none" x="240" y="112" width="226.15966796875" height="144"/></g><g transform="translate(-54,-102) scale(1,1)"><path fill="none" stroke="#000000" d="M 240 112 L 466.15966796875 112 L 466.15966796875 256 L 240 256 L 240 112 Z Z" stroke-miterlimit="10"/></g><g transform="translate(-54,-102) scale(1,1)"><path fill="none" stroke="#000000" d="M 240 137 L 466.15966796875 137" stroke-miterlimit="10"/></g><g transform="translate(-54,-102) scale(1,1)"><path fill="none" stroke="#000000" d="M 240 160 L 466.15966796875 160" stroke-miterlimit="10"/></g><g transform="translate(-54,-102) scale(1,1)"><g><path fill="none" stroke="none"/><text fill="#000000" stroke="none" font-family="Arial" font-size="13px" font-style="normal" font-weight="bold" text-decoration="none" x="323.087158203125" y="131.5">BaseState</text></g></g><g transform="translate(-54,-102) scale(1,1)"><g><path fill="none" stroke="none"/><text fill="#000000" stroke="none" font-family="Arial" font-size="13px" font-style="normal" font-weight="normal" text-decoration="none" x="245" y="154.5">+stateName: string</text></g></g><g transform="translate(-54,-102) scale(1,1)"><g><path fill="none" stroke="none"/><text fill="#000000" stroke="none" font-family="Arial" font-size="13px" font-style="italic" font-weight="normal" text-decoration="none" x="245" y="177.5">+stateInit()</text></g></g><g transform="translate(-54,-102) scale(1,1)"><g><path fill="none" stroke="none"/><text fill="#000000" stroke="none" font-family="Arial" font-size="13px" font-style="italic" font-weight="normal" text-decoration="none" x="245" y="192.5">+stateUpdate()</text></g></g><g transform="translate(-54,-102) scale(1,1)"><g><path fill="none" stroke="none"/><text fill="#000000" stroke="none" font-family="Arial" font-size="13px" font-style="italic" font-weight="normal" text-decoration="none" x="245" y="207.5">+stateEnd()</text></g></g><g transform="translate(-54,-102) scale(1,1)"><g><path fill="none" stroke="none"/><text fill="#000000" stroke="none" font-family="Arial" font-size="13px" font-style="italic" font-weight="normal" text-decoration="none" x="245" y="222.5">+changeState(nextState: BaseState)</text></g></g><g transform="translate(-54,-102) scale(1,1)"><rect fill="#C0C0C0" stroke="none" x="111" y="1679" width="168" height="136" opacity="0.2"/></g><g transform="translate(-54,-102) scale(1,1)"><rect fill="#ffffff" stroke="none" x="104" y="1672" width="168" height="136"/></g><g transform="translate(-54,-102) scale(1,1)"><path fill="none" stroke="#000000" d="M 104 1672 L 272 1672 L 272 1808 L 104 1808 L 104 1672 Z Z" stroke-miterlimit="10"/></g><g transform="translate(-54,-102) scale(1,1)"><path fill="none" stroke="#000000" d="M 104 1697 L 272 1697" stroke-miterlimit="10"/></g><g transform="translate(-54,-102) scale(1,1)"><path fill="none" stroke="#000000" d="M 104 1707 L 272 1707" stroke-miterlimit="10"/></g><g transform="translate(-54,-102) scale(1,1)"><g><path fill="none" stroke="none"/><text fill="#000000" stroke="none" font-family="Arial" font-size="13px" font-style="normal" font-weight="bold" text-decoration="none" x="136.69189453125" y="1691.5">StateEventListner</text></g></g><g transform="translate(-54,-102) scale(1,1)"><path fill="none" stroke="#000000" d="M 432 1456 L 352 1456" stroke-miterlimit="10" stroke-dasharray="3"/></g><g transform="translate(-54,-102) scale(1,1)"><path fill="none" stroke="#000000" d="M 362.16267485762415 1451.7904822439841 L 352 1456 L 362.16267485762415 1460.2095177560159" stroke-miterlimit="10"/></g><g transform="translate(-54,-102) scale(1,1)"><rect fill="#C0C0C0" stroke="none" x="103" y="663" width="272" height="15" opacity="0.2"/></g><g transform="translate(-54,-102) scale(1,1)"><rect fill="#C0C0C0" stroke="none" x="103" y="677" width="680" height="554" opacity="0.2"/></g><g transform="translate(-54,-102) scale(1,1)"><rect fill="#ffffff" stroke="none" x="96" y="671" width="680" height="553"/></g><g transform="translate(-54,-102) scale(1,1)"><path fill="none" stroke="#000000" d="M 96 671 L 776 671 L 776 1224 L 96 1224 L 96 671 Z Z" stroke-miterlimit="10"/></g><g transform="translate(-54,-102) scale(1,1)"><rect fill="#ffffff" stroke="none" x="96" y="656" width="272" height="15"/></g><g transform="translate(-54,-102) scale(1,1)"><path fill="none" stroke="#000000" d="M 96 656 L 368 656 L 368 671 L 96 671 L 96 656 Z Z" stroke-miterlimit="10"/></g><g transform="translate(-54,-102) scale(1,1)"><rect fill="#ffffff" stroke="none" x="96" y="670" width="680" height="554"/></g><g transform="translate(-54,-102) scale(1,1)"><path fill="none" stroke="#000000" d="M 96 670 L 776 670 L 776 1224 L 96 1224 L 96 670 Z Z" stroke-miterlimit="10"/></g><g transform="translate(-54,-102) scale(1,1)"><g><path fill="none" stroke="none"/><text fill="#000000" stroke="none" font-family="Arial" font-size="13px" font-style="normal" font-weight="bold" text-decoration="none" x="399.872314453125" y="690.5">GameStates</text></g></g><g transform="translate(-54,-102) scale(1,1)"><rect fill="#C0C0C0" stroke="none" x="119" y="695" width="152" height="104" opacity="0.2"/></g><g transform="translate(-54,-102) scale(1,1)"><rect fill="#ffffff" stroke="none" x="112" y="688" width="152" height="104"/></g><g transform="translate(-54,-102) scale(1,1)"><path fill="none" stroke="#000000" d="M 112 688 L 264 688 L 264 792 L 112 792 L 112 688 Z Z" stroke-miterlimit="10"/></g><g transform="translate(-54,-102) scale(1,1)"><path fill="none" stroke="#000000" d="M 112 713 L 264 713" stroke-miterlimit="10"/></g><g transform="translate(-54,-102) scale(1,1)"><path fill="none" stroke="#000000" d="M 112 723 L 264 723" stroke-miterlimit="10"/></g><g transform="translate(-54,-102) scale(1,1)"><g><path fill="none" stroke="none"/><text fill="#000000" stroke="none" font-family="Arial" font-size="13px" font-style="italic" font-weight="bold" text-decoration="none" x="155.122314453125" y="707.5">GameState</text></g></g><g transform="translate(-54,-102) scale(1,1)"><path fill="none" stroke="#000000" d="M 112 744 L 72 744 M 72 744 A 8 8 0 0 1 64 736 L 64 192 M 64 192 A 8 8 0 0 1 72 184 L 240 184" stroke-miterlimit="10"/></g><g transform="translate(-54,-102) scale(1,1)"><path fill="#FFFFFF" stroke="none" d="M 219.6746502847517 192.41903551203197 L 240 184 L 219.6746502847517 175.58096448796803"/></g><g transform="translate(-54,-102) scale(1,1)"><path fill="none" stroke="#000000" d="M 219.6746502847517 192.41903551203197 L 240 184 L 219.6746502847517 175.58096448796803 L 219.6746502847517 192.41903551203197" stroke-miterlimit="10"/></g><g transform="translate(-54,-102) scale(1,1)"><rect fill="#C0C0C0" stroke="none" x="159" y="847" width="151" height="103" opacity="0.2"/></g><g transform="translate(-54,-102) scale(1,1)"><rect fill="#ffffff" stroke="none" x="152" y="840" width="151" height="103"/></g><g transform="translate(-54,-102) scale(1,1)"><path fill="none" stroke="#000000" d="M 152 840 L 303 840 L 303 943 L 152 943 L 152 840 Z Z" stroke-miterlimit="10"/></g><g transform="translate(-54,-102) scale(1,1)"><path fill="none" stroke="#000000" d="M 152 865 L 303 865" stroke-miterlimit="10"/></g><g transform="translate(-54,-102) scale(1,1)"><path fill="none" stroke="#000000" d="M 152 875 L 303 875" stroke-miterlimit="10"/></g><g transform="translate(-54,-102) scale(1,1)"><g><path fill="none" stroke="none"/><text fill="#000000" stroke="none" font-family="Arial" font-size="13px" font-style="normal" font-weight="bold" text-decoration="none" x="187.75732421875" y="859.5">InitGameSate</text></g></g><g transform="translate(-54,-102) scale(1,1)"><rect fill="#C0C0C0" stroke="none" x="351" y="847" width="151" height="103" opacity="0.2"/></g><g transform="translate(-54,-102) scale(1,1)"><rect fill="#ffffff" stroke="none" x="344" y="840" width="151" height="103"/></g><g transform="translate(-54,-102) scale(1,1)"><path fill="none" stroke="#000000" d="M 344 840 L 495 840 L 495 943 L 344 943 L 344 840 Z Z" stroke-miterlimit="10"/></g><g transform="translate(-54,-102) scale(1,1)"><path fill="none" stroke="#000000" d="M 344 865 L 495 865" stroke-miterlimit="10"/></g><g transform="translate(-54,-102) scale(1,1)"><path fill="none" stroke="#000000" d="M 344 875 L 495 875" stroke-miterlimit="10"/></g><g transform="translate(-54,-102) scale(1,1)"><g><path fill="none" stroke="none"/><text fill="#000000" stroke="none" font-family="Arial" font-size="13px" font-style="normal" font-weight="bold" text-decoration="none" x="372.53369140625" y="859.5">MainGameState</text></g></g><g transform="translate(-54,-102) scale(1,1)"><rect fill="#C0C0C0" stroke="none" x="535" y="847" width="175" height="103" opacity="0.2"/></g><g transform="translate(-54,-102) scale(1,1)"><rect fill="#ffffff" stroke="none" x="528" y="840" width="175" height="103"/></g><g transform="translate(-54,-102) scale(1,1)"><path fill="none" stroke="#000000" d="M 528 840 L 703 840 L 703 943 L 528 943 L 528 840 Z Z" stroke-miterlimit="10"/></g><g transform="translate(-54,-102) scale(1,1)"><path fill="none" stroke="#000000" d="M 528 865 L 703 865" stroke-miterlimit="10"/></g><g transform="translate(-54,-102) scale(1,1)"><path fill="none" stroke="#000000" d="M 528 875 L 703 875" stroke-miterlimit="10"/></g><g transform="translate(-54,-102) scale(1,1)"><g><path fill="none" stroke="none"/><text fill="#000000" stroke="none" font-family="Arial" font-size="13px" font-style="normal" font-weight="bold" text-decoration="none" x="552.99462890625" y="859.5">ReFindingGameState</text></g></g><g transform="translate(-54,-102) scale(1,1)"><rect fill="#C0C0C0" stroke="none" x="159" y="959" width="151" height="87" opacity="0.2"/></g><g transform="translate(-54,-102) scale(1,1)"><rect fill="#ffffff" stroke="none" x="152" y="952" width="151" height="87"/></g><g transform="translate(-54,-102) scale(1,1)"><path fill="none" stroke="#000000" d="M 152 952 L 303 952 L 303 1039 L 152 1039 L 152 952 Z Z" stroke-miterlimit="10"/></g><g transform="translate(-54,-102) scale(1,1)"><path fill="none" stroke="#000000" d="M 152 977 L 303 977" stroke-miterlimit="10"/></g><g transform="translate(-54,-102) scale(1,1)"><path fill="none" stroke="#000000" d="M 152 987 L 303 987" stroke-miterlimit="10"/></g><g transform="translate(-54,-102) scale(1,1)"><g><path fill="none" stroke="none"/><text fill="#000000" stroke="none" font-family="Arial" font-size="13px" font-style="normal" font-weight="bold" text-decoration="none" x="185.234130859375" y="971.5">DiyGameState</text></g></g><g transform="translate(-54,-102) scale(1,1)"><rect fill="#C0C0C0" stroke="none" x="351" y="959" width="151" height="95" opacity="0.2"/></g><g transform="translate(-54,-102) scale(1,1)"><rect fill="#ffffff" stroke="none" x="344" y="952" width="151" height="95"/></g><g transform="translate(-54,-102) scale(1,1)"><path fill="none" stroke="#000000" d="M 344 952 L 495 952 L 495 1047 L 344 1047 L 344 952 Z Z" stroke-miterlimit="10"/></g><g transform="translate(-54,-102) scale(1,1)"><path fill="none" stroke="#000000" d="M 344 977 L 495 977" stroke-miterlimit="10"/></g><g transform="translate(-54,-102) scale(1,1)"><path fill="none" stroke="#000000" d="M 344 987 L 495 987" stroke-miterlimit="10"/></g><g transform="translate(-54,-102) scale(1,1)"><g><path fill="none" stroke="none"/><text fill="#000000" stroke="none" font-family="Arial" font-size="13px" font-style="normal" font-weight="bold" text-decoration="none" x="358.8037109375" y="971.5">CompanyGameState</text></g></g><g transform="translate(-54,-102) scale(1,1)"><rect fill="#C0C0C0" stroke="none" x="535" y="967" width="168" height="80" opacity="0.2"/></g><g transform="translate(-54,-102) scale(1,1)"><rect fill="#ffffff" stroke="none" x="528" y="960" width="168" height="80"/></g><g transform="translate(-54,-102) scale(1,1)"><path fill="none" stroke="#000000" d="M 528 960 L 696 960 L 696 1040 L 528 1040 L 528 960 Z Z" stroke-miterlimit="10"/></g><g transform="translate(-54,-102) scale(1,1)"><path fill="none" stroke="#000000" d="M 528 985 L 696 985" stroke-miterlimit="10"/></g><g transform="translate(-54,-102) scale(1,1)"><path fill="none" stroke="#000000" d="M 528 995 L 696 995" stroke-miterlimit="10"/></g><g transform="translate(-54,-102) scale(1,1)"><g><path fill="none" stroke="none"/><text fill="#000000" stroke="none" font-family="Arial" font-size="13px" font-style="normal" font-weight="bold" text-decoration="none" x="550.9482421875" y="979.5">CommentGameState</text></g></g><g transform="translate(-54,-102) scale(1,1)"><rect fill="#C0C0C0" stroke="none" x="159" y="1063" width="143" height="103" opacity="0.2"/></g><g transform="translate(-54,-102) scale(1,1)"><rect fill="#ffffff" stroke="none" x="152" y="1056" width="143" height="103"/></g><g transform="translate(-54,-102) scale(1,1)"><path fill="none" stroke="#000000" d="M 152 1056 L 295 1056 L 295 1159 L 152 1159 L 152 1056 Z Z" stroke-miterlimit="10"/></g><g transform="translate(-54,-102) scale(1,1)"><path fill="none" stroke="#000000" d="M 152 1081 L 295 1081" stroke-miterlimit="10"/></g><g transform="translate(-54,-102) scale(1,1)"><path fill="none" stroke="#000000" d="M 152 1091 L 295 1091" stroke-miterlimit="10"/></g><g transform="translate(-54,-102) scale(1,1)"><g><path fill="none" stroke="none"/><text fill="#000000" stroke="none" font-family="Arial" font-size="13px" font-style="normal" font-weight="bold" text-decoration="none" x="168.221435546875" y="1075.5">ContactGameState</text></g></g><g transform="translate(-54,-102) scale(1,1)"><path fill="none" stroke="#000000" d="M 176 840 L 176 792" stroke-miterlimit="10"/></g><g transform="translate(-54,-102) scale(1,1)"><path fill="#FFFFFF" stroke="none" d="M 184.41903551203197 812.3253497152483 L 176 792 L 167.58096448796803 812.3253497152483"/></g><g transform="translate(-54,-102) scale(1,1)"><path fill="none" stroke="#000000" d="M 184.41903551203197 812.3253497152483 L 176 792 L 167.58096448796803 812.3253497152483 L 184.41903551203197 812.3253497152483" stroke-miterlimit="10"/></g><g transform="translate(-54,-102) scale(1,1)"><path fill="none" stroke="#000000" d="M 368 840 L 368 768 M 368 768 A 8 8 0 0 0 360 760 L 264 760" stroke-miterlimit="10"/></g><g transform="translate(-54,-102) scale(1,1)"><path fill="#FFFFFF" stroke="none" d="M 284.3253497152483 751.580964487968 L 264 760 L 284.3253497152483 768.419035512032"/></g><g transform="translate(-54,-102) scale(1,1)"><path fill="none" stroke="#000000" d="M 284.3253497152483 751.580964487968 L 264 760 L 284.3253497152483 768.419035512032 L 284.3253497152483 751.580964487968" stroke-miterlimit="10"/></g><g transform="translate(-54,-102) scale(1,1)"><path fill="none" stroke="#000000" d="M 544 840 L 544 752 M 544 752 A 8 8 0 0 0 536 744 L 264 744" stroke-miterlimit="10"/></g><g transform="translate(-54,-102) scale(1,1)"><path fill="#FFFFFF" stroke="none" d="M 284.3253497152483 735.580964487968 L 264 744 L 284.3253497152483 752.419035512032"/></g><g transform="translate(-54,-102) scale(1,1)"><path fill="none" stroke="#000000" d="M 284.3253497152483 735.580964487968 L 264 744 L 284.3253497152483 752.419035512032 L 284.3253497152483 735.580964487968" stroke-miterlimit="10"/></g><g transform="translate(-54,-102) scale(1,1)"><path fill="none" stroke="#000000" d="M 152 1000 L 144 1000 M 144 1000 A 8 8 0 0 1 136 992 L 136 792" stroke-miterlimit="10"/></g><g transform="translate(-54,-102) scale(1,1)"><path fill="#FFFFFF" stroke="none" d="M 144.41903551203197 812.3253497152483 L 136 792 L 127.58096448796803 812.3253497152483"/></g><g transform="translate(-54,-102) scale(1,1)"><path fill="none" stroke="#000000" d="M 144.41903551203197 812.3253497152483 L 136 792 L 127.58096448796803 812.3253497152483 L 144.41903551203197 812.3253497152483" stroke-miterlimit="10"/></g><g transform="translate(-54,-102) scale(1,1)"><path fill="none" stroke="#000000" d="M 344 1000 L 328 1000 M 328 1000 A 8 8 0 0 1 320 992 L 320 792 M 320 792 A 8 8 0 0 0 312 784 L 264 784" stroke-miterlimit="10"/></g><g transform="translate(-54,-102) scale(1,1)"><path fill="#FFFFFF" stroke="none" d="M 284.3253497152483 775.580964487968 L 264 784 L 284.3253497152483 792.419035512032"/></g><g transform="translate(-54,-102) scale(1,1)"><path fill="none" stroke="#000000" d="M 284.3253497152483 775.580964487968 L 264 784 L 284.3253497152483 792.419035512032 L 284.3253497152483 775.580964487968" stroke-miterlimit="10"/></g><g transform="translate(-54,-102) scale(1,1)"><path fill="none" stroke="#000000" d="M 696 992 L 728 992 M 728 992 A 8 8 0 0 0 736 984 L 736 728 M 736 728 A 8 8 0 0 0 728 720 L 264 720" stroke-miterlimit="10"/></g><g transform="translate(-54,-102) scale(1,1)"><path fill="#FFFFFF" stroke="none" d="M 284.3253497152483 711.580964487968 L 264 720 L 284.3253497152483 728.419035512032"/></g><g transform="translate(-54,-102) scale(1,1)"><path fill="none" stroke="#000000" d="M 284.3253497152483 711.580964487968 L 264 720 L 284.3253497152483 728.419035512032 L 284.3253497152483 711.580964487968" stroke-miterlimit="10"/></g><g transform="translate(-54,-102) scale(1,1)"><path fill="none" stroke="#000000" d="M 152 1080 L 128 1080 M 128 1080 A 8 8 0 0 1 120 1072 L 120 792" stroke-miterlimit="10"/></g><g transform="translate(-54,-102) scale(1,1)"><path fill="#FFFFFF" stroke="none" d="M 128.41903551203197 812.3253497152483 L 120 792 L 111.58096448796803 812.3253497152483"/></g><g transform="translate(-54,-102) scale(1,1)"><path fill="none" stroke="#000000" d="M 128.41903551203197 812.3253497152483 L 120 792 L 111.58096448796803 812.3253497152483 L 128.41903551203197 812.3253497152483" stroke-miterlimit="10"/></g><g transform="translate(-54,-102) scale(1,1)"><rect fill="#C0C0C0" stroke="none" x="103" y="1271" width="272" height="15" opacity="0.2"/></g><g transform="translate(-54,-102) scale(1,1)"><rect fill="#C0C0C0" stroke="none" x="103" y="1285" width="680" height="369" opacity="0.2"/></g><g transform="translate(-54,-102) scale(1,1)"><rect fill="#ffffff" stroke="none" x="96" y="1279" width="680" height="368"/></g><g transform="translate(-54,-102) scale(1,1)"><path fill="none" stroke="#000000" d="M 96 1279 L 776 1279 L 776 1647 L 96 1647 L 96 1279 Z Z" stroke-miterlimit="10"/></g><g transform="translate(-54,-102) scale(1,1)"><rect fill="#ffffff" stroke="none" x="96" y="1264" width="272" height="15"/></g><g transform="translate(-54,-102) scale(1,1)"><path fill="none" stroke="#000000" d="M 96 1264 L 368 1264 L 368 1279 L 96 1279 L 96 1264 Z Z" stroke-miterlimit="10"/></g><g transform="translate(-54,-102) scale(1,1)"><rect fill="#ffffff" stroke="none" x="96" y="1278" width="680" height="369"/></g><g transform="translate(-54,-102) scale(1,1)"><path fill="none" stroke="#000000" d="M 96 1278 L 776 1278 L 776 1647 L 96 1647 L 96 1278 Z Z" stroke-miterlimit="10"/></g><g transform="translate(-54,-102) scale(1,1)"><g><path fill="none" stroke="none"/><text fill="#000000" stroke="none" font-family="Arial" font-size="13px" font-style="normal" font-weight="bold" text-decoration="none" x="409.266845703125" y="1298.5">Behiviors</text></g></g><g transform="translate(-54,-102) scale(1,1)"><rect fill="#C0C0C0" stroke="none" x="127" y="1327" width="232" height="159" opacity="0.2"/></g><g transform="translate(-54,-102) scale(1,1)"><rect fill="#ffffff" stroke="none" x="120" y="1320" width="232" height="159"/></g><g transform="translate(-54,-102) scale(1,1)"><path fill="none" stroke="#000000" d="M 120 1320 L 352 1320 L 352 1479 L 120 1479 L 120 1320 Z Z" stroke-miterlimit="10"/></g><g transform="translate(-54,-102) scale(1,1)"><path fill="none" stroke="#000000" d="M 120 1345 L 352 1345" stroke-miterlimit="10"/></g><g transform="translate(-54,-102) scale(1,1)"><path fill="none" stroke="#000000" d="M 120 1383 L 352 1383" stroke-miterlimit="10"/></g><g transform="translate(-54,-102) scale(1,1)"><g><path fill="none" stroke="none"/><text fill="#000000" stroke="none" font-family="Arial" font-size="13px" font-style="normal" font-weight="bold" text-decoration="none" x="194.81640625" y="1339.5">GameBehivior</text></g></g><g transform="translate(-54,-102) scale(1,1)"><g><path fill="none" stroke="none"/><text fill="#000000" stroke="none" font-family="Arial" font-size="13px" font-style="normal" font-weight="normal" text-decoration="none" x="125" y="1362.5">+gameStateList: List&lt;GameState&gt;</text></g></g><g transform="translate(-54,-102) scale(1,1)"><g><path fill="none" stroke="none"/><text fill="#000000" stroke="none" font-family="Arial" font-size="13px" font-style="normal" font-weight="normal" text-decoration="none" x="125" y="1377.5">+thisState: GameState</text></g></g><g transform="translate(-54,-102) scale(1,1)"><rect fill="#C0C0C0" stroke="none" x="439" y="1327" width="247" height="167" opacity="0.2"/></g><g transform="translate(-54,-102) scale(1,1)"><rect fill="#ffffff" stroke="none" x="432" y="1320" width="247" height="167"/></g><g transform="translate(-54,-102) scale(1,1)"><path fill="none" stroke="#000000" d="M 432 1320 L 679 1320 L 679 1487 L 432 1487 L 432 1320 Z Z" stroke-miterlimit="10"/></g><g transform="translate(-54,-102) scale(1,1)"><path fill="none" stroke="#000000" d="M 432 1345 L 679 1345" stroke-miterlimit="10"/></g><g transform="translate(-54,-102) scale(1,1)"><path fill="none" stroke="#000000" d="M 432 1398 L 679 1398" stroke-miterlimit="10"/></g><g transform="translate(-54,-102) scale(1,1)"><g><path fill="none" stroke="none"/><text fill="#000000" stroke="none" font-family="Arial" font-size="13px" font-style="normal" font-weight="bold" text-decoration="none" x="520.0927734375" y="1339.5">RobBehivior</text></g></g><g transform="translate(-54,-102) scale(1,1)"><g><path fill="none" stroke="none"/><text fill="#000000" stroke="none" font-family="Arial" font-size="13px" font-style="normal" font-weight="normal" text-decoration="none" x="437" y="1362.5">+gameBehivior: GameBehivior</text></g></g><g transform="translate(-54,-102) scale(1,1)"><g><path fill="none" stroke="none"/><text fill="#000000" stroke="none" font-family="Arial" font-size="13px" font-style="normal" font-weight="normal" text-decoration="none" x="437" y="1377.5">+thisState: RobState</text></g></g><g transform="translate(-54,-102) scale(1,1)"><g><path fill="none" stroke="none"/><text fill="#000000" stroke="none" font-family="Arial" font-size="13px" font-style="normal" font-weight="normal" text-decoration="none" x="437" y="1392.5">+robStateList: List&lt;RobBehivior&gt;</text></g></g><g transform="translate(-54,-102) scale(1,1)"><rect fill="#C0C0C0" stroke="none" x="95" y="319" width="275.2" height="15" opacity="0.2"/></g><g transform="translate(-54,-102) scale(1,1)"><rect fill="#C0C0C0" stroke="none" x="95" y="333" width="688" height="242" opacity="0.2"/></g><g transform="translate(-54,-102) scale(1,1)"><rect fill="#ffffff" stroke="none" x="88" y="327" width="688" height="241"/></g><g transform="translate(-54,-102) scale(1,1)"><path fill="none" stroke="#000000" d="M 88 327 L 776 327 L 776 568 L 88 568 L 88 327 Z Z" stroke-miterlimit="10"/></g><g transform="translate(-54,-102) scale(1,1)"><rect fill="#ffffff" stroke="none" x="88" y="312" width="275.2" height="15"/></g><g transform="translate(-54,-102) scale(1,1)"><path fill="none" stroke="#000000" d="M 88 312 L 363.2 312 L 363.2 327 L 88 327 L 88 312 Z Z" stroke-miterlimit="10"/></g><g transform="translate(-54,-102) scale(1,1)"><rect fill="#ffffff" stroke="none" x="88" y="326" width="688" height="242"/></g><g transform="translate(-54,-102) scale(1,1)"><path fill="none" stroke="#000000" d="M 88 326 L 776 326 L 776 568 L 88 568 L 88 326 Z Z" stroke-miterlimit="10"/></g><g transform="translate(-54,-102) scale(1,1)"><g><path fill="none" stroke="none"/><text fill="#000000" stroke="none" font-family="Arial" font-size="13px" font-style="normal" font-weight="bold" text-decoration="none" x="401.648681640625" y="346.5">RobStates</text></g></g><g transform="translate(-54,-102) scale(1,1)"><rect fill="#C0C0C0" stroke="none" x="127" y="367" width="159" height="104" opacity="0.2"/></g><g transform="translate(-54,-102) scale(1,1)"><rect fill="#ffffff" stroke="none" x="120" y="360" width="159" height="104"/></g><g transform="translate(-54,-102) scale(1,1)"><path fill="none" stroke="#000000" d="M 120 360 L 279 360 L 279 464 L 120 464 L 120 360 Z Z" stroke-miterlimit="10"/></g><g transform="translate(-54,-102) scale(1,1)"><path fill="none" stroke="#000000" d="M 120 385 L 279 385" stroke-miterlimit="10"/></g><g transform="translate(-54,-102) scale(1,1)"><path fill="none" stroke="#000000" d="M 120 395 L 279 395" stroke-miterlimit="10"/></g><g transform="translate(-54,-102) scale(1,1)"><g><path fill="none" stroke="none"/><text fill="#000000" stroke="none" font-family="Arial" font-size="13px" font-style="normal" font-weight="bold" text-decoration="none" x="172.398681640625" y="379.5">RobState</text></g></g><g transform="translate(-54,-102) scale(1,1)"><path fill="none" stroke="#000000" d="M 256 360 L 256 256" stroke-miterlimit="10"/></g><g transform="translate(-54,-102) scale(1,1)"><path fill="#FFFFFF" stroke="none" d="M 264.419035512032 276.3253497152483 L 256 256 L 247.58096448796803 276.3253497152483"/></g><g transform="translate(-54,-102) scale(1,1)"><path fill="none" stroke="#000000" d="M 264.419035512032 276.3253497152483 L 256 256 L 247.58096448796803 276.3253497152483 L 264.419035512032 276.3253497152483" stroke-miterlimit="10"/></g></g></svg>