<svg version="1.1" xmlns="http://www.w3.org/2000/svg" xmlns:xlink="http://www.w3.org/1999/xlink" width="749" height="676"><defs/><g><g transform="translate(10,-6) scale(1,1)"><path fill="#ffffff" stroke="none" d="M 18 96 L 235.87744140625 96 Q 245.87744140625 96 245.87744140625 106 L 245.87744140625 150 Q 245.87744140625 160 235.87744140625 160 L 18 160 Q 8 160 8 150 L 8 106 Q 8 96 18 96 Z"/></g><g transform="translate(10,-6) scale(1,1)"><path fill="none" stroke="#000000" d="M 18 96 L 235.87744140625 96 Q 245.87744140625 96 245.87744140625 106 L 245.87744140625 150 Q 245.87744140625 160 235.87744140625 160 L 18 160 Q 8 160 8 150 L 8 106 Q 8 96 18 96 Z" stroke-miterlimit="10"/></g><g transform="translate(10,-6) scale(1,1)"><g><path fill="none" stroke="none"/><text fill="#000000" stroke="none" font-family="Arial" font-size="13px" font-style="normal" font-weight="bold" text-decoration="none" x="15.696044921875" y="115.5">第一次正在识别图像（InitGameSate）</text></g></g><g transform="translate(10,-6) scale(1,1)"><path fill="#ffffff" stroke="none" d="M 80 16 L 213 16 L 223 26 L 223 54 L 80 54 L 80 16"/></g><g transform="translate(10,-6) scale(1,1)"><path fill="none" stroke="#000000" d="M 80 16 L 213 16 L 223 26 L 223 54 L 80 54 L 80 16 L 80 16" stroke-miterlimit="10"/></g><g transform="translate(10,-6) scale(1,1)"><path fill="none" stroke="#000000" d="M 213 16 L 213 26 L 223 26 L 213 16" stroke-miterlimit="10"/></g><g transform="translate(10,-6) scale(1,1)"><g><path fill="none" stroke="none"/><text fill="#000000" stroke="none" font-family="Arial" font-size="13px" font-style="normal" font-weight="normal" text-decoration="none" x="85" y="34">game state</text></g></g><g transform="translate(10,-6) scale(1,1)"><path fill="#C0C0C0" stroke="none" d="M 17 247 L 236.07080078125 247 Q 246.07080078125 247 246.07080078125 257 L 246.07080078125 293 Q 246.07080078125 303 236.07080078125 303 L 17 303 Q 7 303 7 293 L 7 257 Q 7 247 17 247 Z" opacity="0.2"/></g><g transform="translate(10,-6) scale(1,1)"><path fill="#d8e5ff" stroke="none" d="M 10 240 L 229.07080078125 240 Q 239.07080078125 240 239.07080078125 250 L 239.07080078125 286 Q 239.07080078125 296 229.07080078125 296 L 10 296 Q 0 296 0 286 L 0 250 Q 0 240 10 240 Z"/></g><g transform="translate(10,-6) scale(1,1)"><path fill="none" stroke="#000000" d="M 10 240 L 229.07080078125 240 Q 239.07080078125 240 239.07080078125 250 L 239.07080078125 286 Q 239.07080078125 296 229.07080078125 296 L 10 296 Q 0 296 0 286 L 0 250 Q 0 240 10 240 Z" stroke-miterlimit="10"/></g><g transform="translate(10,-6) scale(1,1)"><g><path fill="none" stroke="none"/><text fill="#000000" stroke="none" font-family="Arial" font-size="13px" font-style="normal" font-weight="bold" text-decoration="none" x="7.569091796875" y="259.5">一开始什么也没做（MainGameState）</text></g></g><g transform="translate(10,-6) scale(1,1)"><path fill="none" stroke="#000000" d="M 112 160 L 112 240" stroke-miterlimit="10"/></g><g transform="translate(10,-6) scale(1,1)"><path fill="none" stroke="#000000" d="M 107.79048224398402 229.83732514237585 L 112 240 L 116.20951775601598 229.83732514237585" stroke-miterlimit="10"/></g><g transform="translate(10,-6) scale(1,1)"><path fill="#C0C0C0" stroke="none" d="M 337 295 L 563.49755859375 295 Q 573.49755859375 295 573.49755859375 305 L 573.49755859375 349 Q 573.49755859375 359 563.49755859375 359 L 337 359 Q 327 359 327 349 L 327 305 Q 327 295 337 295 Z" opacity="0.2"/></g><g transform="translate(10,-6) scale(1,1)"><path fill="#ffebd8" stroke="none" d="M 330 288 L 556.49755859375 288 Q 566.49755859375 288 566.49755859375 298 L 566.49755859375 342 Q 566.49755859375 352 556.49755859375 352 L 330 352 Q 320 352 320 342 L 320 298 Q 320 288 330 288 Z"/></g><g transform="translate(10,-6) scale(1,1)"><path fill="none" stroke="#000000" d="M 330 288 L 556.49755859375 288 Q 566.49755859375 288 566.49755859375 298 L 566.49755859375 342 Q 566.49755859375 352 556.49755859375 352 L 330 352 Q 320 352 320 342 L 320 298 Q 320 288 330 288 Z" stroke-miterlimit="10"/></g><g transform="translate(10,-6) scale(1,1)"><g><path fill="none" stroke="none"/><text fill="#000000" stroke="none" font-family="Arial" font-size="13px" font-style="normal" font-weight="bold" text-decoration="none" x="328.743408203125" y="307.5">正在重新识别（ReFindingGameState）</text></g></g><g transform="translate(10,-6) scale(1,1)"><path fill="none" stroke="#000000" d="M 128 296 L 128 315 M 128 315 A 8 8 0 0 0 136 323 L 320 323" stroke-miterlimit="10"/></g><g transform="translate(10,-6) scale(1,1)"><path fill="none" stroke="#000000" d="M 309.83732514237585 327.209517756016 L 320 323 L 309.83732514237585 318.790482243984" stroke-miterlimit="10"/></g><g transform="translate(10,-6) scale(1,1)"><g><path fill="none" stroke="none"/><text fill="#000000" stroke="none" font-family="Arial" font-size="13px" font-style="normal" font-weight="normal" text-decoration="none" x="230.5" y="324.5">图像丢失</text></g></g><g transform="translate(10,-6) scale(1,1)"><path fill="none" stroke="#000000" d="M 320 328 L 128 328 M 128 328 A 8 8 0 0 1 120 320 L 120 296" stroke-miterlimit="10"/></g><g transform="translate(10,-6) scale(1,1)"><path fill="none" stroke="#000000" d="M 124.20951775601598 306.16267485762415 L 120 296 L 115.79048224398402 306.16267485762415" stroke-miterlimit="10"/></g><g transform="translate(10,-6) scale(1,1)"><path fill="#C0C0C0" stroke="none" d="M 273 63 L 469.390625 63 Q 479.390625 63 479.390625 73 L 479.390625 236 Q 479.390625 246 469.390625 246 L 273 246 Q 263 246 263 236 L 263 73 Q 263 63 273 63 Z" opacity="0.2"/></g><g transform="translate(10,-6) scale(1,1)"><path fill="#ffffff" stroke="none" d="M 266 56 L 462.390625 56 Q 472.390625 56 472.390625 66 L 472.390625 229 Q 472.390625 239 462.390625 239 L 266 239 Q 256 239 256 229 L 256 66 Q 256 56 266 56 Z"/></g><g transform="translate(10,-6) scale(1,1)"><path fill="none" stroke="#000000" d="M 266 56 L 462.390625 56 Q 472.390625 56 472.390625 66 L 472.390625 229 Q 472.390625 239 462.390625 239 L 266 239 Q 256 239 256 229 L 256 66 Q 256 56 266 56 Z" stroke-miterlimit="10"/></g><g transform="translate(10,-6) scale(1,1)"><g><path fill="none" stroke="none"/><text fill="#000000" stroke="none" font-family="Arial" font-size="13px" font-style="normal" font-weight="bold" text-decoration="none" x="264.1435546875" y="75.5">留下评论（CommentGameState）</text></g></g><g transform="translate(10,-6) scale(1,1)"><path fill="#C0C0C0" stroke="none" d="M 505 63 L 716.33935546875 63 Q 726.33935546875 63 726.33935546875 73 L 726.33935546875 221 Q 726.33935546875 231 716.33935546875 231 L 505 231 Q 495 231 495 221 L 495 73 Q 495 63 505 63 Z" opacity="0.2"/></g><g transform="translate(10,-6) scale(1,1)"><path fill="#ffffff" stroke="none" d="M 498 56 L 709.33935546875 56 Q 719.33935546875 56 719.33935546875 66 L 719.33935546875 214 Q 719.33935546875 224 709.33935546875 224 L 498 224 Q 488 224 488 214 L 488 66 Q 488 56 498 56 Z"/></g><g transform="translate(10,-6) scale(1,1)"><path fill="none" stroke="#000000" d="M 498 56 L 709.33935546875 56 Q 719.33935546875 56 719.33935546875 66 L 719.33935546875 214 Q 719.33935546875 224 709.33935546875 224 L 498 224 Q 488 224 488 214 L 488 66 Q 488 56 498 56 Z" stroke-miterlimit="10"/></g><g transform="translate(10,-6) scale(1,1)"><g><path fill="none" stroke="none"/><text fill="#000000" stroke="none" font-family="Arial" font-size="13px" font-style="normal" font-weight="bold" text-decoration="none" x="496.39111328125" y="75.5">留下联系方式（ContactGameState）</text></g></g><g transform="translate(10,-6) scale(1,1)"><path fill="#C0C0C0" stroke="none" d="M 121 471 L 365 471 Q 375 471 375 481 L 375 669 Q 375 679 365 679 L 121 679 Q 111 679 111 669 L 111 481 Q 111 471 121 471 Z" opacity="0.2"/></g><g transform="translate(10,-6) scale(1,1)"><path fill="#ffffff" stroke="none" d="M 114 464 L 358 464 Q 368 464 368 474 L 368 662 Q 368 672 358 672 L 114 672 Q 104 672 104 662 L 104 474 Q 104 464 114 464 Z"/></g><g transform="translate(10,-6) scale(1,1)"><path fill="none" stroke="#000000" d="M 114 464 L 358 464 Q 368 464 368 474 L 368 662 Q 368 672 358 672 L 114 672 Q 104 672 104 662 L 104 474 Q 104 464 114 464 Z" stroke-miterlimit="10"/></g><g transform="translate(10,-6) scale(1,1)"><g><path fill="none" stroke="none"/><text fill="#000000" stroke="none" font-family="Arial" font-size="13px" font-style="normal" font-weight="bold" text-decoration="none" x="169.898681640625" y="483.5">DIY（DiyGameState）</text></g></g><g transform="translate(10,-6) scale(1,1)"><path fill="none" stroke="#000000" d="M 192 296 L 192 464" stroke-miterlimit="10"/></g><g transform="translate(10,-6) scale(1,1)"><path fill="none" stroke="#000000" d="M 187.790482243984 453.83732514237585 L 192 464 L 196.209517756016 453.83732514237585" stroke-miterlimit="10"/></g><g transform="translate(10,-6) scale(1,1)"><path fill="#C0C0C0" stroke="none" d="M 529 383 L 724.67333984375 383 Q 734.67333984375 383 734.67333984375 393 L 734.67333984375 412 Q 734.67333984375 422 724.67333984375 422 L 529 422 Q 519 422 519 412 L 519 393 Q 519 383 529 383 Z" opacity="0.2"/></g><g transform="translate(10,-6) scale(1,1)"><path fill="#ffffff" stroke="none" d="M 522 376 L 717.67333984375 376 Q 727.67333984375 376 727.67333984375 386 L 727.67333984375 405 Q 727.67333984375 415 717.67333984375 415 L 522 415 Q 512 415 512 405 L 512 386 Q 512 376 522 376 Z"/></g><g transform="translate(10,-6) scale(1,1)"><path fill="none" stroke="#000000" d="M 522 376 L 717.67333984375 376 Q 727.67333984375 376 727.67333984375 386 L 727.67333984375 405 Q 727.67333984375 415 717.67333984375 415 L 522 415 Q 512 415 512 405 L 512 386 Q 512 376 522 376 Z" stroke-miterlimit="10"/></g><g transform="translate(10,-6) scale(1,1)"><g><path fill="none" stroke="none"/><text fill="#000000" stroke="none" font-family="Arial" font-size="13px" font-style="normal" font-weight="bold" text-decoration="none" x="520.140380859375" y="395.5">科云介绍（CompanyGameState）</text></g></g><g transform="translate(10,-6) scale(1,1)"><path fill="none" stroke="#000000" d="M 168 464 L 168 296" stroke-miterlimit="10"/></g><g transform="translate(10,-6) scale(1,1)"><path fill="none" stroke="#000000" d="M 172.209517756016 306.16267485762415 L 168 296 L 163.790482243984 306.16267485762415" stroke-miterlimit="10"/></g><g transform="translate(10,-6) scale(1,1)"><g><path fill="none" stroke="none"/><text fill="#000000" stroke="none" font-family="Arial" font-size="13px" font-style="normal" font-weight="normal" text-decoration="none" x="126.5" y="343.5">退出</text></g></g><g transform="translate(10,-6) scale(1,1)"><path fill="none" stroke="#000000" d="M 85 296 L 85 387 M 85 387 A 8 8 0 0 0 93 395 L 512 395" stroke-miterlimit="10"/></g><g transform="translate(10,-6) scale(1,1)"><path fill="none" stroke="#000000" d="M 501.83732514237585 399.209517756016 L 512 395 L 501.83732514237585 390.790482243984" stroke-miterlimit="10"/></g><g transform="translate(10,-6) scale(1,1)"><path fill="none" stroke="#000000" d="M 512 408 L 104 408 M 104 408 A 8 8 0 0 1 96 400 L 96 296" stroke-miterlimit="10"/></g><g transform="translate(10,-6) scale(1,1)"><path fill="none" stroke="#000000" d="M 100.20951775601598 306.16267485762415 L 96 296 L 91.79048224398402 306.16267485762415" stroke-miterlimit="10"/></g><g transform="translate(10,-6) scale(1,1)"><g><path fill="none" stroke="none"/><text fill="#000000" stroke="none" font-family="Arial" font-size="13px" font-style="normal" font-weight="normal" text-decoration="none" x="54.5" y="403.5">结束</text></g></g><g transform="translate(10,-6) scale(1,1)"><path fill="none" stroke="#000000" d="M 512 395 L 408 395 M 408 395 A 8 8 0 0 1 400 387 L 400 352" stroke-miterlimit="10"/></g><g transform="translate(10,-6) scale(1,1)"><path fill="none" stroke="#000000" d="M 404.209517756016 362.16267485762415 L 400 352 L 395.790482243984 362.16267485762415" stroke-miterlimit="10"/></g><g transform="translate(10,-6) scale(1,1)"><path fill="none" stroke="#000000" d="M 152 240 L 152 215 M 152 215 A 8 8 0 0 1 160 207 L 256 207" stroke-miterlimit="10"/></g><g transform="translate(10,-6) scale(1,1)"><path fill="none" stroke="#000000" d="M 245.83732514237585 211.209517756016 L 256 207 L 245.83732514237585 202.790482243984" stroke-miterlimit="10"/></g><g transform="translate(10,-6) scale(1,1)"><path fill="none" stroke="#000000" d="M 239 280 L 528 280 M 528 280 A 8 8 0 0 0 536 272 L 536 224" stroke-miterlimit="10"/></g><g transform="translate(10,-6) scale(1,1)"><path fill="none" stroke="#000000" d="M 540.209517756016 234.16267485762415 L 536 224 L 531.790482243984 234.16267485762415" stroke-miterlimit="10"/></g><g transform="translate(10,-6) scale(1,1)"><path fill="none" stroke="#000000" d="M 352 56 L 352 24 M 352 24 A 8 8 0 0 1 360 16 L 720 16 M 720 16 A 8 8 0 0 1 728 24 L 728 328 M 728 328 A 8 8 0 0 1 720 336 L 566 336" stroke-miterlimit="10"/></g><g transform="translate(10,-6) scale(1,1)"><path fill="none" stroke="#000000" d="M 576.1626748576241 331.790482243984 L 566 336 L 576.1626748576241 340.209517756016" stroke-miterlimit="10"/></g><g transform="translate(10,-6) scale(1,1)"><path fill="none" stroke="#000000" d="M 568 224 L 568 280 M 568 280 A 8 8 0 0 1 560 288 L 566 288" stroke-miterlimit="10"/></g><g transform="translate(10,-6) scale(1,1)"><path fill="none" stroke="#000000" d="M 576.1626748576241 283.790482243984 L 566 288 L 576.1626748576241 292.209517756016" stroke-miterlimit="10"/></g><g transform="translate(10,-6) scale(1,1)"><path fill="none" stroke="#000000" d="M 524 224 L 524 264 M 524 264 A 8 8 0 0 1 516 272 L 239 272" stroke-miterlimit="10"/></g><g transform="translate(10,-6) scale(1,1)"><path fill="none" stroke="#000000" d="M 249.16267485762415 267.790482243984 L 239 272 L 249.16267485762415 276.209517756016" stroke-miterlimit="10"/></g><g transform="translate(10,-6) scale(1,1)"><path fill="none" stroke="#000000" d="M 256 200 L 152 200 M 152 200 A 8 8 0 0 0 144 208 L 144 240" stroke-miterlimit="10"/></g><g transform="translate(10,-6) scale(1,1)"><path fill="none" stroke="#000000" d="M 139.790482243984 229.83732514237585 L 144 240 L 148.209517756016 229.83732514237585" stroke-miterlimit="10"/></g><g transform="translate(10,-6) scale(1,1)"><path fill="none" stroke="#000000" d="M 368 600 L 424 600 M 424 600 A 8 8 0 0 0 432 592 L 432 352" stroke-miterlimit="10"/></g><g transform="translate(10,-6) scale(1,1)"><path fill="none" stroke="#000000" d="M 436.209517756016 362.16267485762415 L 432 352 L 427.790482243984 362.16267485762415" stroke-miterlimit="10"/></g><g transform="translate(10,-6) scale(1,1)"><path fill="none" stroke="#000000" d="M 344 352 L 344 464" stroke-miterlimit="10"/></g><g transform="translate(10,-6) scale(1,1)"><path fill="none" stroke="#000000" d="M 339.790482243984 453.83732514237585 L 344 464 L 348.209517756016 453.83732514237585" stroke-miterlimit="10"/></g><g transform="translate(10,-6) scale(1,1)"><path fill="#C0C0C0" stroke="none" d="M 111 88.5 C 111 83.2532944 115.2532944 79 120.5 79 C 125.7467056 79 130 83.2532944 130 88.5 C 130 93.7467056 125.7467056 98 120.5 98 C 115.2532944 98 111 93.7467056 111 88.5 Z" opacity="0.2"/></g><g transform="translate(10,-6) scale(1,1)"><path fill="#000000" stroke="none" d="M 104 81.5 C 104 76.2532944 108.2532944 72 113.5 72 C 118.7467056 72 123 76.2532944 123 81.5 C 123 86.7467056 118.7467056 91 113.5 91 C 108.2532944 91 104 86.7467056 104 81.5 Z"/></g><g transform="translate(10,-6) scale(1,1)"><path fill="none" stroke="#000000" d="M 113 91 L 113 96" stroke-miterlimit="10"/></g><g transform="translate(10,-6) scale(1,1)"><path fill="none" stroke="#000000" d="M 108.79048224398402 85.83732514237585 L 113 96 L 117.20951775601598 85.83732514237585" stroke-miterlimit="10"/></g></g></svg>